<svg height="64" viewBox="0 0 400 400" fill="none"
    xmlns="http://www.w3.org/2000/svg">
    <path fill-rule="evenodd" clip-rule="evenodd" d="M116.51 114.623C116.871 113.889 117.424 112.771 118.02 111.625C118.607 110.477 119.234 109.296 119.917 108.072C120.596 106.842 121.329 105.566 122.089 104.298C122.839 103.023 123.613 101.772 124.339 100.635C125.063 99.4973 125.735 98.4801 126.485 97.3857C127.235 96.2817 128.071 95.1013 128.882 93.9799C129.69 92.869 130.485 91.8075 131.294 90.7643C132.115 89.7141 132.951 88.663 133.848 87.5764C134.744 86.4993 135.7 85.3797 136.665 84.2826C137.623 83.1977 138.596 82.1302 139.588 81.0869C140.58 80.0332 141.597 79.0004 142.596 78.0075C143.606 77.0181 144.597 76.0703 145.57 75.1633C146.545 74.2668 147.493 73.4136 148.57 72.4832C149.658 71.5527 150.872 70.5434 152.104 69.5609C153.328 68.5862 154.57 67.6306 155.776 66.7418C156.984 65.8548 158.146 65.026 159.131 64.3472C160.122 63.665 160.932 63.1399 161.673 62.6565C162.406 62.1818 163.078 61.7591 163.863 61.2861C164.646 60.8113 165.544 60.2793 166.399 59.788C167.252 59.295 168.061 58.8472 168.958 58.3638C169.855 57.889 170.837 57.3813 171.873 56.8657C172.917 56.3476 174.011 55.8225 175.096 55.3312C176.184 54.8304 177.269 54.3566 178.339 53.9165C179.414 53.4695 180.467 53.0547 181.535 52.6511C182.595 52.2527 183.656 51.8743 184.709 51.5193C185.759 51.1678 186.794 50.8397 187.871 50.5125C188.948 50.1922 190.077 49.8746 191.137 49.5986C192.198 49.3122 193.19 49.0726 194.206 48.8478C195.215 48.6161 196.242 48.3982 197.378 48.1934C198.51 47.9756 199.731 47.7612 200.88 47.5893C202.026 47.4088 203.076 47.2699 204.076 47.1571C205.085 47.0373 206.043 46.9349 206.999 46.8568C207.947 46.7709 208.905 46.7101 209.914 46.6589C210.923 46.6077 211.991 46.5643 213.025 46.547C214.069 46.5201 215.068 46.5201 215.982 46.5296C216.888 46.5374 217.706 46.5539 218.525 46.5912C219.353 46.6259 220.179 46.6667 221.093 46.7284C222.007 46.7891 223.017 46.875 223.92 46.9531C224.818 47.0382 225.619 47.1241 226.49 47.237C227.35 47.3489 228.282 47.4687 229.352 47.6423C230.42 47.8063 231.627 48.0138 232.766 48.229C233.905 48.4434 234.983 48.6682 235.964 48.8834C236.947 49.1082 237.843 49.3235 238.826 49.5725C239.809 49.8216 240.879 50.115 241.79 50.3736C242.704 50.6323 243.472 50.8649 244.248 51.1062C245.016 51.3483 245.791 51.5974 246.541 51.8569C247.291 52.106 248.016 52.3647 248.713 52.6138C249.405 52.8655 250.077 53.1145 250.653 53.3393C251.23 53.5537 251.714 53.7447 252.324 53.9938C252.946 54.2429 253.678 54.5458 254.497 54.8973C255.325 55.2523 256.222 55.648 257.05 56.0186C257.876 56.397 258.627 56.752 259.506 57.1747C260.386 57.5948 261.385 58.0956 262.272 58.5521C263.169 59.0095 263.935 59.4148 264.738 59.8279C265.532 60.2506 266.351 60.6803 266.903 60.9736C267.462 61.267 267.765 61.431 267.911 61.5187C268.066 61.595 268.066 61.595 268.066 61.595C268.066 61.595 268.066 61.595 267.608 61.5603C267.152 61.5187 266.248 61.4406 265.307 61.3789C264.368 61.3112 263.393 61.2496 262.462 61.2158C261.532 61.1741 260.635 61.1472 259.826 61.1298C259.005 61.1125 258.258 61.1029 257.489 61.1029C256.722 61.1125 255.929 61.1203 255.161 61.1472C254.393 61.1646 253.66 61.1915 252.911 61.2323C252.16 61.267 251.403 61.3112 250.609 61.372C249.808 61.4301 248.989 61.5013 248.143 61.5864C247.291 61.6645 246.42 61.7678 245.602 61.8702C244.783 61.9648 244.024 62.0681 243.273 62.1896C242.523 62.3024 241.772 62.4222 241.042 62.5515C240.299 62.6808 239.566 62.818 238.765 62.9742C237.963 63.1373 237.084 63.3257 236.292 63.5088C235.491 63.6893 234.765 63.8603 233.956 64.0686C233.144 64.2761 232.241 64.5252 231.405 64.7569C230.566 64.9895 229.8 65.2238 229.103 65.4382C228.404 65.6535 227.766 65.8609 227.05 66.1004C226.344 66.3426 225.549 66.6186 224.766 66.9015C223.974 67.1871 223.189 67.4883 222.327 67.8259C221.473 68.1626 220.56 68.5315 219.687 68.8934C218.817 69.2649 217.989 69.626 217.146 69.9974C216.291 70.3854 215.421 70.7812 214.558 71.1874C213.688 71.5831 212.826 71.9884 212.051 72.3504C211.274 72.7123 210.576 73.0317 210.23 73.1862C209.879 73.3502 209.879 73.3502 209.879 73.3502C209.879 73.3502 209.879 73.3502 209.558 73.3086C209.241 73.2652 208.594 73.1697 207.861 73.0838C207.12 72.9987 206.284 72.9102 205.594 72.8425C204.904 72.7809 204.362 72.747 203.86 72.7132C203.352 72.6785 202.878 72.6541 202.284 72.6342C201.688 72.6168 200.972 72.5934 200.301 72.583C199.638 72.583 199.025 72.583 198.326 72.5934C197.63 72.6099 196.845 72.6342 196.034 72.6784C195.222 72.7227 194.386 72.7731 193.62 72.8347C192.863 72.8928 192.174 72.964 191.474 73.0395C190.775 73.1185 190.069 73.2131 189.371 73.3077C188.664 73.4006 187.975 73.5134 187.267 73.6254C186.57 73.7477 185.862 73.8744 185.044 74.0385C184.225 74.2043 183.305 74.4021 182.295 74.6417C181.286 74.883 180.191 75.1598 179.183 75.4358C178.183 75.7197 177.262 75.9878 176.33 76.2812C175.389 76.5824 174.432 76.9026 173.554 77.2116C172.674 77.5223 171.864 77.8226 171.096 78.1264C170.321 78.4267 169.571 78.7296 168.828 79.0403C168.088 79.358 167.354 79.6783 166.563 80.0402C165.769 80.4012 164.923 80.797 164.087 81.2128C163.252 81.6259 162.417 82.0555 161.544 82.5225C160.674 82.9868 159.77 83.4954 158.985 83.945C158.209 84.392 157.546 84.7799 156.899 85.1757C156.25 85.5749 155.623 85.9707 154.934 86.4168C154.242 86.8664 153.493 87.3646 152.796 87.8489C152.097 88.3323 151.45 88.7897 150.743 89.3053C150.044 89.813 149.294 90.3824 148.656 90.8667C148.029 91.3579 147.52 91.7537 147.019 92.166C146.519 92.5713 146.028 92.9775 145.468 93.4505C144.908 93.9252 144.288 94.4677 143.709 94.985C143.125 95.5031 142.597 95.9848 141.994 96.5464C141.39 97.1131 140.727 97.7606 140.09 98.389C139.459 99.0191 138.866 99.6232 138.324 100.182C137.789 100.751 137.305 101.259 136.772 101.855C136.237 102.45 135.651 103.114 135.081 103.768C134.521 104.423 133.979 105.068 133.521 105.63C133.055 106.199 132.666 106.681 132.21 107.267C131.762 107.854 131.237 108.552 130.822 109.095C130.418 109.647 130.115 110.06 129.754 110.578C129.383 111.103 128.953 111.724 128.54 112.335C128.135 112.938 127.746 113.525 127.333 114.179C126.918 114.834 126.47 115.55 126.082 116.188C125.694 116.819 125.375 117.371 125.039 117.956C124.694 118.551 124.342 119.178 124.012 119.792C123.677 120.402 123.357 120.999 122.988 121.739C122.607 122.482 122.177 123.358 121.754 124.231C121.341 125.101 120.945 125.964 120.547 126.86C120.141 127.757 119.738 128.678 119.357 129.565C118.978 130.462 118.626 131.317 118.289 132.136C117.961 132.953 117.651 133.739 117.375 134.454C117.099 135.16 116.857 135.808 116.607 136.504C116.348 137.203 116.082 137.97 115.806 138.771C115.53 139.572 115.246 140.425 115.005 141.168C114.763 141.908 114.565 142.539 114.315 143.358C114.074 144.166 113.781 145.168 113.556 145.969C113.334 146.761 113.17 147.365 113.013 147.961C112.859 148.555 112.703 149.142 112.539 149.823C112.365 150.503 112.185 151.286 112.014 152.054C111.833 152.821 111.669 153.571 111.53 154.226C111.393 154.891 111.281 155.45 111.125 156.244C110.978 157.045 110.78 158.08 110.626 159.01C110.462 159.951 110.333 160.779 110.211 161.536C110.1 162.286 110.006 162.968 109.92 163.595C109.831 164.216 109.764 164.792 109.685 165.474C109.609 166.146 109.522 166.923 109.445 167.691C109.367 168.465 109.298 169.232 109.228 170.068C109.169 170.896 109.099 171.783 109.047 172.697C108.996 173.621 108.952 174.568 108.917 175.489C108.883 176.413 108.866 177.327 108.85 178.292C108.842 179.274 108.842 180.318 108.85 181.334C108.866 182.36 108.884 183.369 108.928 184.368C108.963 185.368 109.007 186.36 109.065 187.369C109.127 188.369 109.194 189.394 109.279 190.445C109.368 191.506 109.47 192.601 109.573 193.582C109.679 194.574 109.781 195.445 109.893 196.324C109.995 197.204 110.118 198.083 110.254 199.066C110.401 200.048 110.565 201.125 110.738 202.151C110.909 203.185 111.083 204.16 111.271 205.186C111.471 206.21 111.677 207.288 111.875 208.262C112.083 209.245 112.263 210.124 112.461 210.977C112.652 211.832 112.84 212.668 112.987 213.261C113.133 213.858 113.228 214.22 113.28 214.4C113.334 214.571 113.334 214.571 113.334 214.571C113.334 214.571 113.334 214.571 113.143 214.158C112.952 213.745 112.573 212.91 112.151 211.935C111.728 210.961 111.254 209.841 110.876 208.883C110.487 207.925 110.177 207.124 109.883 206.315C109.59 205.503 109.299 204.685 109.023 203.866C108.747 203.055 108.478 202.236 108.24 201.445C107.988 200.661 107.766 199.894 107.548 199.126C107.326 198.358 107.117 197.582 106.876 196.644C106.635 195.696 106.368 194.582 106.119 193.462C105.866 192.341 105.635 191.229 105.438 190.195C105.24 189.152 105.066 188.212 104.903 187.179C104.739 186.152 104.575 185.033 104.439 183.963C104.3 182.895 104.18 181.869 104.078 180.826C103.973 179.793 103.88 178.74 103.802 177.644C103.734 176.542 103.663 175.396 103.611 174.138C103.57 172.88 103.532 171.509 103.532 170.163C103.525 168.809 103.542 167.483 103.586 166.139C103.627 164.785 103.689 163.424 103.774 162.089C103.862 160.752 103.972 159.443 104.102 158.13C104.231 156.831 104.378 155.528 104.551 154.218C104.722 152.916 104.92 151.597 105.155 150.202C105.386 148.804 105.653 147.33 105.956 145.847C106.257 144.357 106.583 142.866 106.965 141.305C107.344 139.746 107.766 138.126 108.231 136.479C108.698 134.839 109.196 133.178 109.68 131.678C110.161 130.168 110.627 128.817 111.11 127.488C111.584 126.168 112.075 124.875 112.586 123.594C113.093 122.318 113.619 121.05 114.162 119.792C114.704 118.534 115.266 117.282 115.629 116.49C115.99 115.696 116.154 115.352 116.516 114.619L116.51 114.623Z" fill="white"/>
    <path fill-rule="evenodd" clip-rule="evenodd" d="M253.414 0C156.155 0.491246 63.0477 123.484 111.355 212.835C89.8033 162.788 109.821 102.667 149.706 67.6539C182.126 39.1938 227.796 27.4438 273.99 50.2355C277.37 44.0359 281.196 22.6962 253.414 0Z" fill="white"/>
    <path fill-rule="evenodd" clip-rule="evenodd" d="M113.02 205.964C112.941 204.921 112.891 204.007 112.856 203.086C112.812 202.172 112.785 201.241 112.761 200.378C112.744 199.509 112.735 198.708 112.735 197.923C112.727 197.139 112.735 196.372 112.744 195.639C112.752 194.897 112.768 194.182 112.802 193.399C112.829 192.615 112.864 191.759 112.908 190.95C112.949 190.149 112.993 189.398 113.045 188.69C113.096 187.985 113.148 187.322 113.208 186.657C113.26 185.993 113.331 185.32 113.417 184.528C113.502 183.734 113.604 182.813 113.728 181.883C113.839 180.96 113.969 180.029 114.115 179.08C114.262 178.133 114.416 177.175 114.572 176.253C114.736 175.339 114.9 174.46 115.105 173.399C115.32 172.349 115.589 171.115 115.838 169.996C116.097 168.875 116.339 167.865 116.622 166.764C116.916 165.66 117.243 164.452 117.587 163.256C117.932 162.058 118.304 160.868 118.699 159.644C119.098 158.41 119.538 157.152 119.957 155.972C120.38 154.792 120.796 153.688 121.269 152.498C121.743 151.308 122.268 150.032 122.811 148.791C123.346 147.55 123.888 146.352 124.502 145.067C125.112 143.792 125.794 142.421 126.491 141.094C127.183 139.757 127.896 138.458 128.578 137.241C129.267 136.034 129.941 134.905 130.768 133.579C131.585 132.259 132.578 130.725 133.536 129.312C134.491 127.898 135.415 126.595 136.458 125.19C137.499 123.795 138.654 122.311 139.818 120.88C140.983 119.45 142.154 118.079 143.249 116.855C144.343 115.621 145.362 114.527 146.535 113.33C147.699 112.133 149.025 110.814 150.352 109.572C151.671 108.314 152.991 107.133 154.431 105.9C155.87 104.669 157.422 103.393 159 102.168C160.568 100.945 162.161 99.7617 163.679 98.6941C165.214 97.617 166.67 96.6346 167.973 95.7883C169.275 94.9525 170.412 94.2538 171.515 93.5986C172.619 92.9441 173.681 92.3314 174.749 91.7464C175.809 91.1501 176.869 90.5912 177.818 90.0991C178.756 89.6078 179.584 89.193 180.508 88.7451C181.419 88.3051 182.421 87.8312 183.352 87.4016C184.282 86.9789 185.136 86.5979 185.566 86.4165C185.988 86.229 185.988 86.229 185.988 86.229C185.988 86.229 185.988 86.229 185.592 86.229C185.187 86.229 184.375 86.2368 183.628 86.2533C182.878 86.2707 182.179 86.3071 181.411 86.3661C180.644 86.4173 179.808 86.4955 178.919 86.5909C178.025 86.6933 177.083 86.8322 176.143 86.9867C175.205 87.1429 174.257 87.3243 173.291 87.5387C172.317 87.7531 171.324 88.003 170.291 88.2955C169.247 88.5889 168.17 88.9265 167.214 89.2433C166.256 89.5731 165.428 89.8838 164.593 90.211C163.749 90.5461 162.904 90.908 162.138 91.2517C161.36 91.5989 160.664 91.9339 159.826 92.3557C159 92.7688 158.042 93.2766 157.233 93.7339C156.412 94.1913 155.741 94.5889 155 95.0463C154.257 95.5028 153.456 96.0183 152.671 96.5469C151.897 97.072 151.129 97.6144 150.386 98.15C149.656 98.6924 148.947 99.227 148.207 99.8207C147.467 100.407 146.69 101.044 145.871 101.751C145.059 102.45 144.207 103.217 143.405 103.957C142.611 104.699 141.871 105.423 141.13 106.173C140.387 106.924 139.637 107.708 138.863 108.561C138.079 109.413 137.267 110.337 136.516 111.217C135.776 112.097 135.095 112.922 134.449 113.75C133.801 114.568 133.191 115.37 132.57 116.216C131.949 117.052 131.329 117.931 130.698 118.835C130.078 119.741 129.457 120.68 128.871 121.593C128.284 122.5 127.732 123.387 127.199 124.284C126.665 125.171 126.139 126.077 125.596 127.049C125.051 128.024 124.502 129.067 123.915 130.196C123.336 131.325 122.733 132.533 122.235 133.575C121.733 134.609 121.345 135.461 120.959 136.324C120.571 137.196 120.191 138.074 119.691 139.297C119.19 140.521 118.57 142.09 118.02 143.583C117.458 145.073 116.966 146.486 116.527 147.788C116.096 149.098 115.718 150.297 115.312 151.685C114.907 153.064 114.467 154.641 114.098 156.047C113.734 157.441 113.433 158.683 113.157 159.934C112.873 161.183 112.615 162.45 112.373 163.675C112.141 164.899 111.926 166.08 111.735 167.277C111.538 168.476 111.357 169.69 111.21 170.829C111.054 171.957 110.934 173.001 110.812 174.224C110.684 175.448 110.563 176.861 110.467 178.146C110.374 179.422 110.313 180.578 110.269 181.61C110.228 182.644 110.202 183.567 110.191 184.567C110.174 185.576 110.174 186.66 110.201 187.86C110.227 189.068 110.269 190.384 110.337 191.696C110.399 193.006 110.493 194.298 110.606 195.567C110.718 196.832 110.855 198.083 111.019 199.341C111.175 200.6 111.363 201.865 111.588 203.178C111.813 204.477 112.063 205.813 112.328 207.072C112.597 208.323 112.873 209.495 113.078 210.355C113.287 211.218 113.44 211.77 113.511 212.046C113.586 212.322 113.586 212.322 113.586 212.322C113.586 212.322 113.586 212.322 113.535 211.831C113.476 211.329 113.371 210.33 113.276 209.253C113.183 208.166 113.088 207.002 113.019 205.959L113.02 205.964Z" fill="white"/>
    <path fill-rule="evenodd" clip-rule="evenodd" d="M231.769 85.3583C232.581 85.3002 233.829 85.2212 235.125 85.1535C236.417 85.0849 237.751 85.0311 239.159 85.0068C240.571 84.9721 242.055 84.9625 243.528 84.9799C245.011 84.9894 246.495 85.0311 247.838 85.0745C249.192 85.1361 250.407 85.1943 251.736 85.2897C253.07 85.3843 254.509 85.5145 255.89 85.6508C257.269 85.7897 258.58 85.9363 259.898 86.1177C261.218 86.2887 262.555 86.4788 263.943 86.7114C265.33 86.9362 266.779 87.2027 268.209 87.4787C269.648 87.7642 271.053 88.0654 272.468 88.3934C273.872 88.7302 275.278 89.0748 276.639 89.4462C278.009 89.8151 279.336 90.197 280.604 90.5824C281.872 90.9642 283.086 91.36 284.431 91.8235C285.785 92.2904 287.277 92.8251 288.741 93.3927C290.217 93.9542 291.664 94.5479 293.045 95.1424C294.415 95.7283 295.715 96.3245 296.803 96.8332C297.888 97.3418 298.759 97.7714 299.545 98.1706C300.329 98.5664 301.034 98.9379 301.836 99.3675C302.648 99.8067 303.552 100.315 304.405 100.799C305.26 101.29 306.062 101.764 306.931 102.289C307.794 102.824 308.732 103.41 309.697 104.048C310.662 104.686 311.671 105.365 312.646 106.057C313.618 106.736 314.576 107.435 315.507 108.141C316.431 108.84 317.326 109.539 318.198 110.255C319.077 110.968 319.948 111.695 320.776 112.427C321.611 113.151 322.42 113.873 323.238 114.641C324.066 115.418 324.902 116.227 325.679 117.004C326.453 117.772 327.162 118.511 327.869 119.262C328.575 120.021 329.282 120.796 330.032 121.666C330.783 122.538 331.584 123.486 332.316 124.383C333.042 125.279 333.687 126.115 334.301 126.924C334.904 127.736 335.471 128.512 336.024 129.287C336.566 130.071 337.101 130.856 337.661 131.701C338.213 132.547 338.781 133.451 339.324 134.33C339.859 135.21 340.368 136.069 340.818 136.864C341.274 137.648 341.66 138.365 342.048 139.087C342.427 139.811 342.809 140.553 343.212 141.372C343.627 142.19 344.057 143.097 344.436 143.915C344.815 144.741 345.144 145.474 345.479 146.275C345.824 147.076 346.186 147.939 346.574 148.948C346.962 149.948 347.386 151.086 347.774 152.18C348.16 153.265 348.504 154.309 348.814 155.266C349.117 156.221 349.376 157.101 349.653 158.076C349.927 159.048 350.213 160.119 350.444 161.04C350.676 161.954 350.867 162.737 351.048 163.522C351.222 164.307 351.393 165.101 351.549 165.868C351.704 166.642 351.85 167.393 351.98 168.125C352.109 168.851 352.229 169.548 352.334 170.162C352.429 170.765 352.505 171.28 352.6 171.935C352.686 172.583 352.798 173.376 352.903 174.263C353.014 175.143 353.119 176.115 353.214 177.022C353.299 177.919 353.378 178.745 353.446 179.712C353.514 180.685 353.583 181.806 353.644 182.796C353.695 183.788 353.729 184.658 353.764 185.555C353.807 186.452 353.842 187.375 353.858 188.003C353.885 188.634 353.893 188.968 353.902 189.141C353.91 189.305 353.91 189.305 353.91 189.305C353.91 189.305 353.91 189.305 353.712 188.9C353.514 188.487 353.126 187.668 352.713 186.823C352.3 185.988 351.86 185.125 351.428 184.297C350.997 183.471 350.568 182.687 350.179 181.971C349.78 181.256 349.411 180.617 349.023 179.953C348.635 179.299 348.222 178.617 347.816 177.972C347.42 177.324 347.024 176.704 346.619 176.076C346.204 175.445 345.783 174.808 345.334 174.152C344.886 173.498 344.413 172.825 343.912 172.136C343.41 171.444 342.885 170.748 342.387 170.093C341.896 169.436 341.422 168.832 340.948 168.249C340.463 167.652 339.989 167.075 339.506 166.507C339.025 165.93 338.533 165.368 337.989 164.757C337.446 164.144 336.843 163.49 336.293 162.895C335.731 162.292 335.216 161.757 334.629 161.163C334.033 160.567 333.371 159.912 332.75 159.309C332.129 158.705 331.542 158.162 330.998 157.672C330.456 157.17 329.964 156.731 329.395 156.24C328.825 155.749 328.198 155.206 327.55 154.672C326.905 154.129 326.25 153.604 325.533 153.035C324.81 152.465 324.023 151.862 323.266 151.293C322.516 150.726 321.783 150.198 321.033 149.656C320.275 149.113 319.49 148.571 318.706 148.026C317.929 147.484 317.145 146.941 316.439 146.458C315.733 145.966 315.102 145.519 314.792 145.304C314.481 145.079 314.481 145.079 314.481 145.079C314.481 145.079 314.481 145.079 314.361 144.786C314.232 144.483 313.99 143.889 313.696 143.208C313.403 142.529 313.059 141.761 312.766 141.141C312.473 140.511 312.231 140.029 312.008 139.572C311.783 139.123 311.569 138.71 311.283 138.185C311.009 137.657 310.662 137.028 310.336 136.452C310.008 135.873 309.698 135.348 309.329 134.754C308.965 134.158 308.552 133.486 308.112 132.814C307.664 132.132 307.198 131.443 306.758 130.812C306.327 130.192 305.922 129.632 305.499 129.073C305.086 128.513 304.656 127.945 304.216 127.393C303.776 126.833 303.336 126.289 302.88 125.745C302.422 125.193 301.955 124.651 301.406 124.03C300.854 123.409 300.216 122.71 299.5 121.96C298.784 121.22 297.992 120.418 297.249 119.685C296.499 118.952 295.803 118.298 295.076 117.643C294.344 116.987 293.586 116.322 292.88 115.719C292.164 115.115 291.5 114.573 290.855 114.055C290.197 113.548 289.569 113.056 288.922 112.575C288.277 112.091 287.628 111.617 286.913 111.117C286.207 110.618 285.432 110.093 284.655 109.574C283.871 109.067 283.086 108.558 282.241 108.041C281.398 107.532 280.508 106.997 279.724 106.55C278.941 106.101 278.268 105.732 277.603 105.377C276.931 105.016 276.276 104.671 275.543 104.3C274.803 103.939 273.991 103.543 273.224 103.179C272.456 102.817 271.734 102.49 270.932 102.145C270.138 101.8 269.268 101.429 268.527 101.129C267.784 100.835 267.18 100.594 266.577 100.368C265.973 100.146 265.37 99.9212 264.681 99.6791C263.991 99.4378 263.197 99.1713 262.466 98.9292C261.724 98.6879 261.045 98.4718 260.25 98.2401C259.456 98.0083 258.561 97.7558 257.699 97.524C256.837 97.2923 256.008 97.084 255.251 96.9034C254.49 96.7221 253.801 96.5684 253.017 96.4053C252.234 96.2412 251.363 96.0676 250.511 95.9114C249.656 95.7569 248.829 95.6102 248.104 95.4983C247.39 95.3863 246.771 95.2908 246.037 95.198C245.294 95.1025 244.434 95.0001 243.743 94.922C243.063 94.843 242.552 94.7927 241.925 94.7406C241.287 94.6894 240.527 94.6286 239.796 94.5765C239.063 94.5323 238.355 94.4889 237.579 94.4646C236.803 94.4299 235.96 94.403 235.217 94.3969C234.476 94.3795 233.829 94.3795 233.149 94.3865C232.468 94.3865 231.745 94.3969 231.046 94.4212C230.347 94.4385 229.665 94.4724 228.84 94.5167C228.012 94.5679 227.029 94.6286 226.064 94.7067C225.09 94.7927 224.151 94.8777 223.167 94.981C222.194 95.086 221.194 95.2058 220.229 95.3282C219.261 95.4479 218.34 95.5677 217.46 95.697C216.58 95.8194 215.755 95.9487 214.994 96.0685C214.238 96.1883 213.565 96.3002 212.822 96.44C212.089 96.5693 211.288 96.716 210.452 96.8878C209.616 97.0519 208.736 97.2324 207.979 97.3956C207.212 97.5596 206.565 97.7063 205.73 97.9033C204.902 98.1038 203.892 98.3529 203.083 98.5586C202.272 98.766 201.679 98.9301 201.082 99.0932C200.488 99.2564 199.902 99.4204 199.221 99.6183C198.549 99.8179 197.781 100.051 197.031 100.283C196.274 100.524 195.54 100.757 194.893 100.972C194.255 101.18 193.712 101.36 192.945 101.637C192.178 101.904 191.179 102.258 190.292 102.585C189.402 102.923 188.61 103.223 187.894 103.499C187.189 103.783 186.548 104.041 185.965 104.283C185.378 104.525 184.833 104.757 184.213 105.023C183.585 105.299 182.869 105.609 182.163 105.937C181.456 106.257 180.748 106.584 179.998 106.946C179.247 107.3 178.446 107.696 177.628 108.109C176.802 108.524 175.957 108.964 175.138 109.395C174.32 109.834 173.516 110.274 172.672 110.749C171.819 111.229 170.913 111.757 170.033 112.282C169.146 112.807 168.283 113.326 167.438 113.858C166.585 114.394 165.749 114.936 164.904 115.489C164.061 116.048 163.216 116.617 162.343 117.222C161.467 117.834 160.569 118.472 159.768 119.058C158.957 119.635 158.251 120.16 157.545 120.695C156.837 121.237 156.137 121.78 155.354 122.394C154.579 123.014 153.726 123.693 152.914 124.358C152.113 125.022 151.356 125.66 150.561 126.341C149.767 127.02 148.931 127.746 148.181 128.408C147.441 129.073 146.768 129.676 146.122 130.27C145.477 130.866 144.856 131.45 144.406 131.873C143.966 132.305 143.708 132.572 143.571 132.701C143.441 132.83 143.441 132.83 143.441 132.83C143.441 132.83 143.441 132.83 143.708 132.459C143.976 132.09 144.512 131.339 145.139 130.485C145.777 129.632 146.51 128.667 147.148 127.856C147.786 127.038 148.329 126.376 148.881 125.711C149.433 125.046 149.992 124.392 150.572 123.747C151.139 123.098 151.709 122.461 152.27 121.85C152.837 121.237 153.382 120.659 153.941 120.081C154.501 119.514 155.063 118.944 155.76 118.263C156.458 117.582 157.294 116.789 158.14 116.013C158.976 115.229 159.838 114.471 160.63 113.782C161.434 113.09 162.164 112.471 162.976 111.808C163.795 111.154 164.674 110.445 165.537 109.79C166.399 109.135 167.225 108.515 168.07 107.904C168.924 107.291 169.785 106.688 170.699 106.067C171.613 105.446 172.586 104.818 173.646 104.144C174.717 103.472 175.889 102.758 177.052 102.077C178.215 101.396 179.378 100.741 180.568 100.103C181.768 99.4551 182.982 98.8276 184.19 98.2314C185.387 97.6368 186.586 97.0684 187.774 96.5259C188.975 95.9834 190.181 95.4549 191.397 94.9471C192.62 94.4394 193.862 93.9482 195.188 93.45C196.518 92.9483 197.93 92.4406 199.369 91.9563C200.808 91.465 202.274 91.0016 203.818 90.5442C205.36 90.0868 206.979 89.6302 208.636 89.2076C210.3 88.7849 211.989 88.3796 213.541 88.0437C215.082 87.7069 216.497 87.4231 217.885 87.1723C219.273 86.9136 220.634 86.6906 222.004 86.4831C223.375 86.2748 224.738 86.0952 226.099 85.9311C227.46 85.7671 228.824 85.63 229.704 85.5354C230.574 85.4564 230.952 85.4234 231.771 85.3618L231.769 85.3583Z" fill="white"/>
    <path fill-rule="evenodd" clip-rule="evenodd" d="M400 145.748C350.709 62.1907 197.228 43.7438 143.964 130.25C176.557 86.5412 238.776 73.5935 289.197 90.367C330.169 104.012 363.313 137.455 366.736 188.717C373.813 188.509 394.26 181.089 400 145.748Z" fill="white"/>
    <path fill-rule="evenodd" clip-rule="evenodd" d="M150.758 128.235C151.627 127.649 152.395 127.148 153.172 126.649C153.946 126.149 154.73 125.664 155.473 125.209C156.224 124.761 156.913 124.349 157.594 123.95C158.274 123.554 158.938 123.176 159.586 122.813C160.231 122.45 160.851 122.105 161.55 121.736C162.249 121.365 163.007 120.969 163.73 120.598C164.446 120.227 165.118 119.9 165.756 119.581C166.395 119.271 166.997 118.986 167.6 118.702C168.214 118.416 168.824 118.132 169.557 117.804C170.29 117.477 171.143 117.116 172.006 116.744C172.869 116.383 173.738 116.028 174.635 115.676C175.533 115.322 176.436 114.978 177.316 114.65C178.196 114.33 179.031 114.029 180.057 113.685C181.084 113.33 182.281 112.942 183.386 112.598C184.488 112.253 185.489 111.96 186.592 111.65C187.686 111.339 188.893 111.022 190.108 110.72C191.325 110.418 192.539 110.133 193.807 109.866C195.073 109.59 196.385 109.332 197.617 109.099C198.857 108.874 200.021 108.676 201.288 108.486C202.564 108.298 203.945 108.107 205.289 107.953C206.632 107.789 207.942 107.659 209.368 107.538C210.78 107.427 212.305 107.323 213.815 107.254C215.323 107.186 216.806 107.142 218.201 107.125C219.598 107.107 220.918 107.117 222.478 107.169C224.046 107.211 225.867 107.298 227.581 107.41C229.288 107.52 230.883 107.667 232.615 107.858C234.347 108.056 236.219 108.305 238.045 108.591C239.872 108.874 241.649 109.202 243.268 109.522C244.881 109.849 246.338 110.176 247.968 110.582C249.598 110.988 251.406 111.469 253.157 111.977C254.897 112.495 256.595 113.031 258.39 113.651C260.172 114.273 262.069 114.968 263.914 115.711C265.776 116.451 267.587 117.236 269.284 118.003C270.993 118.78 272.569 119.547 273.956 120.243C275.337 120.942 276.517 121.58 277.638 122.194C278.758 122.814 279.828 123.425 280.869 124.046C281.913 124.667 282.939 125.296 283.845 125.864C284.739 126.433 285.516 126.934 286.361 127.503C287.204 128.073 288.118 128.7 288.963 129.287C289.798 129.873 290.549 130.425 290.928 130.691C291.309 130.967 291.309 130.967 291.309 130.967C291.309 130.967 291.309 130.967 291.101 130.623C290.893 130.278 290.488 129.586 290.092 128.949C289.704 128.311 289.325 127.725 288.884 127.087C288.454 126.458 287.97 125.77 287.438 125.054C286.893 124.338 286.307 123.598 285.706 122.864C285.092 122.131 284.465 121.408 283.782 120.682C283.111 119.959 282.395 119.219 281.618 118.476C280.85 117.726 280.015 116.969 279.247 116.304C278.49 115.649 277.808 115.08 277.092 114.527C276.386 113.978 275.646 113.426 274.954 112.934C274.265 112.443 273.627 112.004 272.853 111.503C272.069 111.005 271.145 110.436 270.343 109.961C269.531 109.478 268.852 109.099 268.085 108.694C267.318 108.288 266.465 107.858 265.609 107.445C264.767 107.03 263.912 106.644 263.076 106.279C262.24 105.918 261.412 105.583 260.533 105.239C259.646 104.892 258.706 104.547 257.68 104.195C256.661 103.851 255.567 103.497 254.525 103.186C253.482 102.867 252.48 102.6 251.456 102.334C250.429 102.075 249.376 101.815 248.247 101.573C247.111 101.332 245.904 101.099 244.766 100.895C243.637 100.694 242.57 100.523 241.533 100.376C240.5 100.238 239.49 100.108 238.448 99.9981C237.403 99.8861 236.336 99.7906 235.232 99.7047C234.137 99.6266 233.008 99.558 231.923 99.5146C230.846 99.4634 229.802 99.4356 228.749 99.4287C227.708 99.4113 226.655 99.4192 225.543 99.4365C224.431 99.4634 223.251 99.4981 221.976 99.5658C220.7 99.6275 219.347 99.7221 218.198 99.8175C217.044 99.9035 216.104 99.9989 215.166 100.101C214.218 100.204 213.269 100.317 211.95 100.497C210.639 100.688 208.966 100.937 207.389 101.213C205.821 101.48 204.345 101.765 202.991 102.041C201.64 102.325 200.406 102.601 199 102.945C197.596 103.289 196.02 103.705 194.613 104.091C193.207 104.479 191.985 104.851 190.761 105.229C189.527 105.625 188.303 106.03 187.123 106.436C185.942 106.849 184.811 107.264 183.675 107.695C182.536 108.135 181.391 108.592 180.329 109.022C179.279 109.462 178.303 109.885 177.182 110.392C176.053 110.9 174.77 111.504 173.614 112.067C172.451 112.633 171.424 113.151 170.502 113.635C169.581 114.117 168.769 114.565 167.889 115.057C167.012 115.549 166.072 116.091 165.045 116.721C164.011 117.342 162.882 118.038 161.787 118.754C160.683 119.478 159.605 120.203 158.562 120.936C157.518 121.676 156.502 122.417 155.493 123.185C154.486 123.961 153.467 124.763 152.45 125.608C151.434 126.451 150.401 127.347 149.443 128.203C148.484 129.063 147.607 129.882 146.967 130.495C146.329 131.116 145.927 131.521 145.718 131.719C145.511 131.926 145.511 131.926 145.511 131.926C145.511 131.926 145.511 131.926 145.926 131.624C146.321 131.33 147.13 130.744 148.027 130.117C148.917 129.486 149.881 128.814 150.752 128.237L150.758 128.235Z" fill="white"/>
    <path fill-rule="evenodd" clip-rule="evenodd" d="M316.205 170.469C316.662 171.149 317.361 172.185 318.068 173.269C318.766 174.346 319.48 175.475 320.213 176.675C320.938 177.872 321.687 179.147 322.42 180.433C323.145 181.716 323.852 183.017 324.479 184.207C325.11 185.397 325.662 186.482 326.239 187.672C326.826 188.872 327.436 190.182 328.005 191.44C328.575 192.698 329.1 193.906 329.608 195.137C330.12 196.361 330.61 197.603 331.109 198.922C331.6 200.232 332.101 201.62 332.575 202.99C333.042 204.368 333.48 205.739 333.902 207.119C334.325 208.497 334.721 209.885 335.076 211.248C335.447 212.609 335.774 213.946 336.075 215.229C336.368 216.524 336.636 217.766 336.913 219.16C337.18 220.566 337.456 222.117 337.698 223.668C337.937 225.22 338.154 226.764 338.325 228.245C338.499 229.728 338.636 231.151 338.739 232.34C338.833 233.53 338.895 234.495 338.938 235.375C338.989 236.254 339.024 237.046 339.042 237.96C339.066 238.875 339.085 239.91 339.085 240.892C339.085 241.875 339.075 242.796 339.048 243.815C339.015 244.822 338.973 245.926 338.902 247.082C338.844 248.235 338.748 249.442 338.636 250.624C338.523 251.812 338.394 252.984 338.247 254.131C338.101 255.286 337.937 256.407 337.756 257.52C337.575 258.632 337.378 259.743 337.162 260.828C336.947 261.915 336.722 262.966 336.464 264.06C336.204 265.154 335.921 266.293 335.636 267.344C335.352 268.405 335.069 269.379 334.765 270.362C334.454 271.354 334.137 272.353 333.756 273.431C333.377 274.518 332.947 275.689 332.533 276.766C332.119 277.837 331.714 278.819 331.318 279.749C330.922 280.67 330.523 281.55 330.121 282.412C329.716 283.282 329.299 284.137 328.845 285.031C328.388 285.938 327.887 286.876 327.387 287.782C326.896 288.686 326.397 289.559 325.94 290.342C325.474 291.118 325.051 291.816 324.611 292.515C324.181 293.204 323.735 293.903 323.216 294.66C322.708 295.418 322.138 296.247 321.612 296.986C321.087 297.72 320.611 298.374 320.086 299.073C319.56 299.762 318.991 300.504 318.311 301.34C317.637 302.185 316.852 303.124 316.102 303.997C315.346 304.873 314.612 305.694 313.93 306.435C313.25 307.175 312.62 307.84 311.914 308.564C311.207 309.288 310.423 310.064 309.731 310.728C309.052 311.391 308.473 311.943 307.879 312.485C307.285 313.037 306.682 313.572 306.086 314.098C305.492 314.623 304.905 315.114 304.347 315.598C303.777 316.072 303.225 316.519 302.751 316.917C302.267 317.304 301.864 317.624 301.336 318.029C300.821 318.442 300.183 318.926 299.467 319.459C298.76 319.993 297.956 320.58 297.226 321.106C296.483 321.631 295.804 322.106 295 322.65C294.191 323.2 293.25 323.82 292.425 324.365C291.579 324.908 290.847 325.372 290.079 325.846C289.322 326.329 288.545 326.82 288.009 327.157C287.467 327.492 287.183 327.666 287.036 327.761C286.89 327.846 286.89 327.846 286.89 327.846C286.89 327.846 286.89 327.846 287.148 327.468C287.405 327.096 287.932 326.347 288.448 325.572C288.976 324.795 289.508 323.984 290.009 323.199C290.507 322.415 290.984 321.657 291.397 320.959C291.82 320.252 292.198 319.622 292.577 318.95C292.956 318.288 293.345 317.596 293.706 316.924C294.068 316.253 294.414 315.605 294.75 314.933C295.095 314.271 295.431 313.59 295.776 312.874C296.121 312.158 296.465 311.408 296.82 310.633C297.172 309.856 297.519 309.055 297.837 308.297C298.157 307.546 298.441 306.83 298.717 306.125C298.993 305.426 299.258 304.72 299.518 304.013C299.767 303.315 300.019 302.616 300.275 301.841C300.533 301.064 300.809 300.211 301.052 299.434C301.284 298.66 301.5 297.944 301.717 297.142C301.94 296.33 302.181 295.427 302.388 294.591C302.604 293.746 302.784 292.971 302.948 292.262C303.104 291.546 303.242 290.892 303.388 290.159C303.535 289.429 303.689 288.607 303.828 287.781C303.975 286.963 304.104 286.124 304.241 285.221C304.371 284.317 304.51 283.342 304.62 282.402C304.732 281.464 304.837 280.577 304.93 279.653C305.018 278.732 305.103 277.774 305.189 276.826C305.267 275.879 305.346 274.938 305.424 274.085C305.492 273.232 305.561 272.472 305.595 272.093C305.629 271.715 305.628 271.715 305.628 271.715C305.628 271.715 305.628 271.715 305.826 271.456C306.024 271.198 306.423 270.689 306.87 270.096C307.31 269.499 307.8 268.827 308.206 268.258C308.602 267.699 308.905 267.251 309.181 266.829C309.465 266.406 309.714 266.01 310.034 265.509C310.345 265.002 310.724 264.388 311.06 263.82C311.395 263.242 311.705 262.716 312.043 262.105C312.377 261.493 312.742 260.804 313.111 260.08C313.482 259.354 313.844 258.604 314.171 257.915C314.499 257.226 314.785 256.605 315.061 255.958C315.345 255.32 315.621 254.666 315.879 254.011C316.146 253.357 316.395 252.701 316.647 252.037C316.886 251.365 317.128 250.693 317.398 249.899C317.664 249.115 317.947 248.219 318.24 247.228C318.534 246.236 318.837 245.149 319.095 244.15C319.352 243.14 319.576 242.21 319.784 241.254C319.989 240.289 320.19 239.308 320.362 238.393C320.525 237.479 320.664 236.634 320.794 235.815C320.914 234.997 321.016 234.202 321.121 233.401C321.214 232.607 321.303 231.806 321.378 230.946C321.456 230.084 321.534 229.153 321.586 228.222C321.647 227.291 321.689 226.36 321.716 225.378C321.743 224.396 321.759 223.36 321.75 222.456C321.75 221.559 321.743 220.792 321.725 220.042C321.698 219.285 321.664 218.542 321.619 217.723C321.568 216.905 321.507 216.008 321.439 215.163C321.37 214.319 321.292 213.526 321.197 212.673C321.094 211.811 320.974 210.87 320.869 210.085C320.757 209.302 320.664 208.656 320.559 208.026C320.456 207.388 320.344 206.76 320.214 206.044C320.077 205.321 319.913 204.51 319.757 203.75C319.593 202.993 319.439 202.293 319.241 201.492C319.05 200.691 318.818 199.794 318.594 198.932C318.361 198.079 318.127 197.26 317.904 196.51C317.689 195.77 317.472 195.097 317.233 194.338C316.98 193.581 316.698 192.745 316.405 191.924C316.121 191.115 315.827 190.32 315.559 189.648C315.3 188.96 315.068 188.391 314.785 187.709C314.499 187.019 314.163 186.218 313.887 185.587C313.611 184.96 313.396 184.503 313.128 183.926C312.861 183.347 312.533 182.668 312.207 182.003C311.879 181.348 311.559 180.727 311.207 180.039C310.846 179.357 310.44 178.615 310.079 177.969C309.724 177.314 309.403 176.761 309.06 176.176C308.715 175.589 308.336 174.968 307.975 174.375C307.603 173.779 307.242 173.219 306.792 172.521C306.335 171.832 305.786 171.013 305.233 170.219C304.681 169.428 304.129 168.651 303.552 167.866C302.975 167.075 302.372 166.263 301.786 165.489C301.199 164.722 300.63 163.979 300.078 163.29C299.528 162.591 299.001 161.936 298.519 161.343C298.035 160.756 297.595 160.221 297.114 159.652C296.63 159.085 296.105 158.472 295.545 157.835C294.984 157.197 294.379 156.532 293.854 155.955C293.339 155.369 292.882 154.887 292.295 154.267C291.709 153.653 290.986 152.903 290.399 152.309C289.82 151.714 289.38 151.274 288.941 150.844C288.503 150.414 288.063 149.998 287.553 149.507C287.045 149.026 286.458 148.481 285.874 147.948C285.295 147.413 284.718 146.894 284.217 146.447C283.718 145.998 283.287 145.619 282.665 145.094C282.045 144.559 281.243 143.886 280.51 143.283C279.776 142.673 279.114 142.144 278.519 141.67C277.915 141.196 277.372 140.776 276.874 140.388C276.373 139.999 275.906 139.654 275.357 139.249C274.805 138.844 274.174 138.386 273.537 137.939C272.908 137.482 272.27 137.042 271.579 136.569C270.89 136.102 270.15 135.604 269.382 135.102C268.606 134.604 267.804 134.086 267.02 133.602C266.228 133.111 265.45 132.637 264.608 132.145C263.762 131.654 262.855 131.129 261.958 130.628C261.064 130.129 260.175 129.645 259.288 129.181C258.401 128.715 257.511 128.258 256.615 127.811C255.7 127.361 254.787 126.913 253.822 126.463C252.857 126.017 251.848 125.56 250.944 125.154C250.039 124.748 249.218 124.404 248.4 124.059C247.581 123.715 246.763 123.388 245.841 123.016C244.91 122.654 243.884 122.258 242.909 121.896C241.926 121.525 240.996 121.188 240.003 120.844C239.021 120.499 237.977 120.147 237.022 119.837C236.074 119.517 235.212 119.251 234.376 118.992C233.53 118.723 232.712 118.474 232.126 118.311C231.53 118.14 231.168 118.045 230.987 118C230.806 117.949 230.806 117.949 230.806 117.949C230.806 117.949 230.806 117.949 231.263 117.993C231.721 118.035 232.644 118.123 233.702 118.243C234.755 118.362 235.962 118.519 236.988 118.665C238.012 118.802 238.867 118.941 239.71 119.088C240.565 119.235 241.418 119.389 242.272 119.562C243.116 119.726 243.96 119.906 244.771 120.088C245.582 120.268 246.356 120.449 247.134 120.647C247.908 120.838 248.685 121.035 249.624 121.301C250.571 121.561 251.676 121.888 252.771 122.225C253.873 122.57 254.961 122.924 255.959 123.269C256.959 123.613 257.865 123.94 258.848 124.309C259.822 124.681 260.874 125.097 261.873 125.509C262.872 125.915 263.83 126.327 264.788 126.75C265.736 127.18 266.692 127.62 267.692 128.104C268.683 128.586 269.717 129.104 270.839 129.69C271.959 130.276 273.167 130.931 274.338 131.593C275.51 132.258 276.666 132.94 277.822 133.646C278.968 134.352 280.124 135.085 281.243 135.828C282.364 136.568 283.45 137.318 284.52 138.075C285.588 138.836 286.648 139.61 287.699 140.412C288.751 141.213 289.802 142.042 290.897 142.938C292.001 143.835 293.148 144.8 294.294 145.799C295.432 146.799 296.571 147.825 297.734 148.929C298.907 150.031 300.112 151.214 301.311 152.427C302.508 153.645 303.699 154.91 304.767 156.073C305.837 157.238 306.785 158.316 307.699 159.384C308.613 160.461 309.492 161.529 310.352 162.607C311.215 163.684 312.06 164.771 312.879 165.866C313.707 166.96 314.509 168.062 315.017 168.778C315.535 169.487 315.75 169.796 316.207 170.469H316.205Z" fill="white"/>
    <path fill-rule="evenodd" clip-rule="evenodd" d="M347.781 345.867C395.778 261.56 335.118 119.862 233.305 117.115C287.588 123.406 329.938 170.651 340.548 222.557C349.168 264.735 336.66 310.056 293.819 338.628C297.535 344.637 314.197 358.574 347.781 345.868L347.781 345.867Z" fill="white"/>
    <path fill-rule="evenodd" clip-rule="evenodd" d="M238.46 121.967C239.398 122.423 240.216 122.836 241.045 123.259C241.864 123.682 242.681 124.122 243.442 124.527C244.209 124.95 244.916 125.336 245.597 125.724C246.286 126.112 246.941 126.501 247.579 126.879C248.217 127.258 248.829 127.619 249.502 128.043C250.174 128.456 250.898 128.913 251.579 129.353C252.251 129.785 252.881 130.198 253.476 130.594C254.062 130.992 254.614 131.361 255.167 131.749C255.717 132.127 256.269 132.517 256.916 132.99C257.562 133.455 258.312 134.007 259.063 134.576C259.813 135.136 260.552 135.715 261.303 136.309C262.063 136.895 262.82 137.516 263.537 138.109C264.26 138.705 264.942 139.283 265.753 139.991C266.562 140.704 267.503 141.542 268.356 142.316C269.201 143.1 269.959 143.817 270.777 144.608C271.598 145.409 272.475 146.289 273.347 147.186C274.218 148.083 275.07 148.996 275.943 149.955C276.812 150.91 277.692 151.901 278.511 152.857C279.32 153.815 280.079 154.719 280.871 155.72C281.676 156.72 282.528 157.822 283.337 158.9C284.149 159.987 284.923 161.055 285.733 162.219C286.545 163.383 287.388 164.648 288.209 165.917C289.018 167.174 289.796 168.442 290.508 169.64C291.224 170.837 291.872 171.977 292.612 173.347C293.354 174.725 294.19 176.338 294.948 177.871C295.699 179.406 296.38 180.855 297.069 182.449C297.768 184.044 298.491 185.786 299.156 187.501C299.818 189.217 300.422 190.915 300.949 192.474C301.474 194.025 301.922 195.448 302.379 197.06C302.846 198.664 303.327 200.464 303.749 202.233C304.182 204 304.561 205.732 304.913 207.584C305.277 209.446 305.612 211.42 305.899 213.394C306.172 215.358 306.406 217.315 306.577 219.17C306.759 221.033 306.88 222.781 306.966 224.323C307.051 225.867 307.095 227.194 307.113 228.479C307.139 229.754 307.139 230.978 307.122 232.193C307.102 233.4 307.069 234.597 307.016 235.668C306.982 236.728 306.931 237.65 306.852 238.658C306.792 239.676 306.699 240.78 306.611 241.788C306.518 242.805 306.413 243.736 306.372 244.192C306.318 244.657 306.318 244.657 306.318 244.657C306.318 244.657 306.318 244.657 306.518 244.312C306.716 243.961 307.113 243.262 307.466 242.597C307.827 241.943 308.146 241.322 308.483 240.633C308.818 239.944 309.164 239.183 309.516 238.358C309.877 237.536 310.225 236.667 310.56 235.771C310.897 234.873 311.207 233.97 311.5 233.029C311.794 232.081 312.078 231.099 312.336 230.055C312.595 229.011 312.844 227.91 313.035 226.928C313.233 225.935 313.38 225.066 313.509 224.176C313.629 223.289 313.742 222.376 313.827 221.54C313.912 220.695 313.966 219.928 314.018 218.997C314.058 218.076 314.093 216.998 314.103 216.058C314.12 215.127 314.103 214.343 314.076 213.48C314.041 212.61 314 211.662 313.929 210.731C313.861 209.783 313.765 208.859 313.672 207.956C313.567 207.052 313.447 206.172 313.309 205.231C313.162 204.301 312.991 203.311 312.783 202.258C312.578 201.207 312.335 200.085 312.086 199.025C311.835 197.965 311.575 196.975 311.299 195.956C311.008 194.939 310.705 193.897 310.351 192.802C309.99 191.707 309.594 190.544 309.206 189.467C308.81 188.379 308.422 187.38 308.033 186.414C307.647 185.44 307.248 184.509 306.828 183.554C306.405 182.606 305.948 181.63 305.474 180.641C304.99 179.649 304.492 178.64 303.991 177.682C303.489 176.727 302.991 175.813 302.483 174.899C301.965 173.995 301.439 173.089 300.87 172.141C300.293 171.185 299.663 170.183 298.964 169.123C298.275 168.055 297.518 166.926 296.86 165.985C296.206 165.037 295.663 164.27 295.103 163.503C294.542 162.735 293.965 161.978 293.147 160.935C292.328 159.891 291.275 158.571 290.251 157.348C289.233 156.126 288.251 154.995 287.337 153.971C286.415 152.945 285.563 152.02 284.553 150.978C283.554 149.937 282.398 148.782 281.365 147.765C280.322 146.746 279.39 145.876 278.442 145.006C277.495 144.144 276.527 143.281 275.579 142.472C274.631 141.661 273.709 140.885 272.761 140.126C271.814 139.359 270.848 138.593 269.942 137.904C269.028 137.205 268.185 136.584 267.177 135.868C266.177 135.144 265.004 134.334 263.934 133.618C262.873 132.904 261.901 132.274 261.022 131.721C260.143 131.162 259.351 130.688 258.479 130.18C257.616 129.662 256.668 129.13 255.617 128.55C254.556 127.963 253.384 127.343 252.213 126.757C251.04 126.163 249.868 125.594 248.704 125.059C247.549 124.526 246.393 124.025 245.223 123.534C244.05 123.05 242.843 122.576 241.592 122.119C240.351 121.663 239.058 121.216 237.834 120.82C236.61 120.422 235.464 120.077 234.601 119.838C233.749 119.586 233.197 119.439 232.921 119.364C232.647 119.285 232.647 119.285 232.647 119.285C232.647 119.285 232.647 119.285 233.101 119.49C233.558 119.698 234.471 120.103 235.464 120.551C236.456 121.008 237.524 121.509 238.465 121.966L238.46 121.967Z" fill="white"/>
    <path fill-rule="evenodd" clip-rule="evenodd" d="M283.465 284.911C283.113 285.644 282.561 286.766 281.974 287.912C281.389 289.065 280.76 290.248 280.086 291.48C279.406 292.703 278.68 293.989 277.931 295.265C277.174 296.53 276.405 297.79 275.682 298.927C274.966 300.066 274.301 301.082 273.552 302.186C272.802 303.289 271.975 304.478 271.165 305.6C270.363 306.719 269.572 307.772 268.76 308.822C267.949 309.883 267.113 310.925 266.227 312.01C265.337 313.098 264.381 314.227 263.424 315.321C262.459 316.416 261.494 317.477 260.501 318.527C259.511 319.587 258.51 320.624 257.503 321.612C256.502 322.614 255.512 323.562 254.547 324.466C253.572 325.369 252.631 326.225 251.546 327.156C250.469 328.094 249.262 329.103 248.03 330.095C246.806 331.077 245.572 332.032 244.365 332.93C243.168 333.819 242.005 334.645 241.022 335.326C240.03 336.015 239.229 336.55 238.486 337.024C237.745 337.508 237.081 337.928 236.296 338.412C235.512 338.886 234.615 339.421 233.772 339.912C232.917 340.411 232.108 340.86 231.21 341.342C230.323 341.826 229.339 342.343 228.305 342.859C227.261 343.377 226.177 343.902 225.089 344.403C224.004 344.901 222.917 345.386 221.849 345.832C220.778 346.282 219.718 346.695 218.658 347.101C217.599 347.506 216.539 347.884 215.485 348.246C214.442 348.601 213.409 348.935 212.324 349.263C211.247 349.584 210.124 349.911 209.065 350.187C208.004 350.471 207.012 350.722 205.995 350.954C204.986 351.187 203.963 351.402 202.831 351.619C201.702 351.833 200.471 352.049 199.332 352.229C198.185 352.41 197.135 352.557 196.126 352.677C195.127 352.799 194.169 352.894 193.211 352.979C192.255 353.065 191.307 353.133 190.299 353.194C189.289 353.245 188.222 353.289 187.188 353.314C186.144 353.341 185.143 353.35 184.232 353.341C183.325 353.341 182.506 353.314 181.688 353.29C180.859 353.263 180.031 353.222 179.119 353.16C178.205 353.099 177.197 353.023 176.29 352.946C175.395 352.86 174.592 352.772 173.721 352.67C172.851 352.568 171.921 352.438 170.85 352.282C169.789 352.111 168.584 351.911 167.446 351.695C166.3 351.49 165.23 351.273 164.24 351.05C163.255 350.833 162.361 350.628 161.377 350.379C160.395 350.126 159.327 349.844 158.403 349.585C157.489 349.325 156.723 349.1 155.954 348.861C155.18 348.619 154.403 348.369 153.652 348.118C152.905 347.869 152.179 347.62 151.48 347.368C150.784 347.119 150.12 346.87 149.533 346.654C148.956 346.437 148.472 346.24 147.861 345.997C147.248 345.748 146.507 345.447 145.689 345.103C144.861 344.756 143.956 344.36 143.128 343.989C142.3 343.62 141.55 343.265 140.673 342.842C139.793 342.42 138.784 341.922 137.897 341.472C137.007 341.025 136.233 340.62 135.431 340.207C134.637 339.792 133.818 339.361 133.258 339.068C132.697 338.775 132.406 338.611 132.25 338.533C132.103 338.448 132.103 338.448 132.103 338.448C132.103 338.448 132.103 338.448 132.55 338.483C133.007 338.526 133.921 338.595 134.852 338.663C135.793 338.725 136.768 338.775 137.698 338.81C138.629 338.854 139.524 338.879 140.345 338.889C141.163 338.906 141.903 338.906 142.671 338.906C143.438 338.899 144.231 338.88 145 338.862C145.767 338.838 146.497 338.811 147.248 338.769C147.998 338.725 148.765 338.681 149.559 338.613C150.351 338.551 151.169 338.484 152.025 338.398C152.868 338.313 153.74 338.208 154.559 338.104C155.377 338.002 156.135 337.897 156.884 337.777C157.635 337.665 158.385 337.536 159.117 337.406C159.858 337.276 160.591 337.14 161.392 336.976C162.196 336.803 163.067 336.615 163.868 336.434C164.659 336.251 165.385 336.069 166.194 335.864C167.015 335.65 167.909 335.407 168.748 335.166C169.583 334.924 170.351 334.692 171.049 334.477C171.746 334.252 172.384 334.044 173.093 333.805C173.806 333.564 174.591 333.287 175.375 332.993C176.169 332.709 176.953 332.407 177.806 332.072C178.661 331.725 179.583 331.356 180.452 330.985C181.314 330.613 182.142 330.251 182.989 329.873C183.841 329.485 184.712 329.089 185.574 328.683C186.436 328.278 187.297 327.872 188.073 327.511C188.848 327.142 189.547 326.821 189.892 326.657C190.236 326.503 190.236 326.503 190.236 326.503C190.236 326.503 190.236 326.503 190.564 326.545C190.884 326.589 191.523 326.674 192.262 326.759C193.005 326.848 193.841 326.923 194.529 326.984C195.219 327.045 195.753 327.086 196.263 327.113C196.77 327.147 197.237 327.164 197.831 327.191C198.427 327.209 199.15 327.226 199.815 327.226C200.486 327.234 201.098 327.226 201.797 327.216C202.496 327.199 203.28 327.165 204.091 327.124C204.9 327.079 205.736 327.018 206.495 326.959C207.263 326.898 207.941 326.83 208.641 326.742C209.34 326.666 210.056 326.571 210.752 326.475C211.451 326.373 212.14 326.261 212.849 326.138C213.546 326.019 214.262 325.889 215.073 325.725C215.891 325.554 216.815 325.354 217.822 325.114C218.831 324.873 219.919 324.587 220.925 324.303C221.934 324.027 222.848 323.751 223.786 323.45C224.717 323.148 225.675 322.829 226.555 322.51C227.435 322.199 228.236 321.899 229.011 321.595C229.788 321.285 230.528 320.985 231.271 320.664C232.012 320.354 232.745 320.026 233.537 319.665C234.331 319.294 235.167 318.897 236.003 318.475C236.841 318.062 237.677 317.63 238.539 317.165C239.409 316.691 240.313 316.19 241.098 315.734C241.881 315.286 242.538 314.89 243.184 314.493C243.832 314.097 244.452 313.692 245.141 313.244C245.83 312.794 246.581 312.285 247.279 311.805C247.975 311.32 248.623 310.864 249.323 310.348C250.021 309.83 250.769 309.261 251.399 308.769C252.026 308.286 252.538 307.882 253.036 307.468C253.537 307.062 254.028 306.659 254.58 306.174C255.14 305.701 255.77 305.158 256.337 304.641C256.915 304.123 257.448 303.631 258.044 303.072C258.639 302.502 259.311 301.848 259.941 301.219C260.572 300.589 261.165 299.985 261.707 299.416C262.242 298.856 262.723 298.339 263.251 297.745C263.784 297.149 264.37 296.487 264.932 295.832C265.498 295.167 266.034 294.522 266.491 293.961C266.957 293.392 267.336 292.91 267.793 292.314C268.241 291.73 268.766 291.03 269.172 290.478C269.587 289.926 269.88 289.513 270.242 288.995C270.603 288.47 271.043 287.849 271.449 287.238C271.853 286.625 272.241 286.039 272.654 285.384C273.069 284.73 273.509 284.014 273.895 283.376C274.276 282.748 274.594 282.195 274.931 281.599C275.266 281.012 275.62 280.375 275.958 279.764C276.285 279.151 276.596 278.557 276.974 277.817C277.345 277.074 277.775 276.187 278.188 275.317C278.603 274.446 279 273.575 279.396 272.688C279.791 271.791 280.197 270.867 280.569 269.972C280.948 269.084 281.302 268.222 281.63 267.396C281.957 266.575 282.268 265.792 282.533 265.085C282.809 264.369 283.041 263.724 283.301 263.026C283.553 262.327 283.819 261.56 284.096 260.758C284.372 259.957 284.648 259.104 284.887 258.362C285.129 257.622 285.327 256.984 285.569 256.165C285.801 255.354 286.094 254.355 286.319 253.553C286.544 252.759 286.697 252.156 286.853 251.562C287.008 250.967 287.164 250.382 287.318 249.7C287.491 249.011 287.672 248.233 287.843 247.467C288.016 246.7 288.18 245.942 288.317 245.288C288.446 244.623 288.559 244.064 288.716 243.262C288.862 242.468 289.05 241.435 289.207 240.504C289.362 239.562 289.491 238.737 289.613 237.977C289.723 237.22 289.811 236.548 289.897 235.918C289.982 235.29 290.053 234.71 290.128 234.032C290.196 233.356 290.285 232.582 290.363 231.815C290.431 231.037 290.5 230.271 290.561 229.445C290.619 228.61 290.68 227.73 290.732 226.806C290.783 225.892 290.827 224.944 290.854 224.013C290.878 223.092 290.905 222.186 290.912 221.213C290.922 220.232 290.912 219.195 290.895 218.169C290.887 217.145 290.861 216.137 290.817 215.137C290.782 214.135 290.731 213.146 290.673 212.146C290.601 211.137 290.534 210.12 290.438 209.061C290.352 208 290.24 206.905 290.137 205.921C290.032 204.939 289.929 204.06 289.817 203.183C289.705 202.311 289.575 201.433 289.43 200.449C289.284 199.466 289.121 198.389 288.937 197.363C288.766 196.329 288.593 195.354 288.395 194.331C288.207 193.305 287.99 192.234 287.784 191.252C287.586 190.28 287.385 189.399 287.188 188.545C287 187.692 286.802 186.856 286.655 186.263C286.509 185.666 286.403 185.305 286.362 185.124C286.308 184.95 286.308 184.95 286.308 184.95C286.308 184.95 286.308 184.95 286.499 185.365C286.689 185.778 287.076 186.614 287.498 187.589C287.931 188.564 288.396 189.675 288.784 190.63C289.18 191.588 289.483 192.389 289.783 193.198C290.086 194.002 290.379 194.82 290.653 195.639C290.929 196.448 291.199 197.269 291.448 198.06C291.697 198.844 291.932 199.612 292.146 200.38C292.369 201.147 292.586 201.914 292.826 202.862C293.067 203.803 293.344 204.921 293.593 206.033C293.852 207.155 294.087 208.266 294.292 209.3C294.49 210.336 294.664 211.284 294.835 212.318C294.999 213.344 295.163 214.456 295.309 215.534C295.456 216.601 295.578 217.62 295.681 218.663C295.793 219.697 295.888 220.748 295.966 221.852C296.042 222.946 296.113 224.102 296.164 225.351C296.215 226.608 296.26 227.98 296.268 229.323C296.277 230.677 296.26 232.007 296.223 233.357C296.189 234.704 296.13 236.064 296.042 237.402C295.966 238.745 295.861 240.055 295.731 241.357C295.611 242.66 295.466 243.962 295.292 245.271C295.128 246.582 294.94 247.9 294.708 249.289C294.483 250.693 294.215 252.167 293.921 253.65C293.62 255.14 293.3 256.631 292.921 258.192C292.553 259.751 292.138 261.38 291.68 263.027C291.224 264.664 290.725 266.329 290.241 267.838C289.767 269.346 289.303 270.7 288.837 272.026C288.362 273.345 287.872 274.637 287.37 275.923C286.862 277.206 286.346 278.482 285.801 279.74C285.268 280.991 284.707 282.239 284.345 283.033C283.99 283.834 283.827 284.179 283.465 284.912V284.911Z" fill="white"/>
    <path fill-rule="evenodd" clip-rule="evenodd" d="M146.948 400C244.209 399.172 336.901 275.878 288.284 186.691C310.006 236.65 290.197 296.839 250.423 331.992C218.108 360.557 172.48 372.468 126.207 349.826C122.846 356.04 119.087 377.399 146.948 400Z" fill="white"/>
    <path fill-rule="evenodd" clip-rule="evenodd" d="M286.656 193.563C286.732 194.606 286.784 195.517 286.827 196.43C286.871 197.355 286.906 198.275 286.923 199.147C286.95 200.007 286.957 200.818 286.966 201.602C286.966 202.386 286.966 203.146 286.957 203.887C286.95 204.627 286.93 205.343 286.913 206.128C286.889 206.911 286.854 207.764 286.81 208.568C286.776 209.377 286.732 210.127 286.68 210.833C286.64 211.542 286.586 212.204 286.527 212.869C286.473 213.534 286.404 214.205 286.329 214.997C286.241 215.798 286.139 216.712 286.026 217.643C285.914 218.574 285.785 219.505 285.648 220.453C285.509 221.393 285.354 222.359 285.198 223.272C285.044 224.193 284.88 225.073 284.673 226.125C284.468 227.176 284.199 228.418 283.95 229.539C283.701 230.658 283.459 231.667 283.172 232.779C282.889 233.883 282.569 235.081 282.224 236.277C281.88 237.477 281.519 238.674 281.123 239.898C280.734 241.13 280.304 242.391 279.882 243.578C279.467 244.751 279.054 245.855 278.588 247.053C278.114 248.243 277.587 249.528 277.055 250.769C276.52 252.01 275.983 253.208 275.373 254.493C274.77 255.776 274.098 257.139 273.399 258.473C272.71 259.81 272.002 261.118 271.322 262.326C270.631 263.549 269.976 264.672 269.15 265.998C268.331 267.334 267.346 268.859 266.39 270.281C265.443 271.696 264.519 273.005 263.485 274.403C262.452 275.808 261.295 277.298 260.133 278.73C258.977 280.161 257.814 281.54 256.719 282.771C255.632 284.006 254.622 285.1 253.452 286.306C252.287 287.503 250.97 288.823 249.651 290.081C248.331 291.33 247.012 292.529 245.582 293.761C244.151 295.002 242.591 296.277 241.023 297.511C239.452 298.743 237.875 299.916 236.348 301C234.833 302.077 233.366 303.07 232.064 303.916C230.772 304.752 229.633 305.458 228.539 306.122C227.436 306.776 226.376 307.387 225.316 307.984C224.246 308.577 223.195 309.147 222.247 309.638C221.305 310.139 220.48 310.552 219.565 311.001C218.651 311.448 217.643 311.922 216.722 312.353C215.79 312.775 214.935 313.157 214.515 313.354C214.083 313.543 214.083 313.543 214.083 313.543C214.083 313.543 214.083 313.543 214.488 313.535C214.884 313.535 215.696 313.525 216.446 313.5C217.196 313.483 217.892 313.439 218.659 313.388C219.426 313.327 220.272 313.249 221.162 313.147C222.049 313.045 222.987 312.906 223.927 312.751C224.865 312.587 225.816 312.396 226.781 312.182C227.754 311.968 228.746 311.707 229.779 311.415C230.814 311.121 231.892 310.777 232.848 310.449C233.806 310.129 234.632 309.812 235.47 309.475C236.306 309.147 237.152 308.786 237.926 308.432C238.703 308.079 239.4 307.752 240.218 307.32C241.046 306.897 242.004 306.389 242.823 305.932C243.631 305.475 244.313 305.072 245.046 304.615C245.786 304.158 246.58 303.641 247.365 303.105C248.149 302.58 248.907 302.038 249.64 301.493C250.383 300.95 251.089 300.408 251.822 299.821C252.563 299.227 253.339 298.589 254.148 297.881C254.96 297.175 255.812 296.407 256.607 295.657C257.398 294.917 258.131 294.192 258.882 293.434C259.622 292.684 260.365 291.9 261.139 291.037C261.917 290.184 262.725 289.263 263.468 288.384C264.208 287.504 264.891 286.669 265.538 285.851C266.176 285.023 266.786 284.221 267.408 283.375C268.021 282.53 268.642 281.653 269.262 280.746C269.883 279.833 270.503 278.902 271.088 277.981C271.666 277.074 272.219 276.188 272.745 275.292C273.277 274.394 273.795 273.491 274.338 272.516C274.872 271.541 275.431 270.5 276.011 269.361C276.588 268.241 277.185 267.016 277.683 265.982C278.174 264.939 278.573 264.086 278.951 263.217C279.33 262.354 279.708 261.475 280.209 260.251C280.7 259.02 281.311 257.451 281.863 255.958C282.415 254.467 282.906 253.053 283.337 251.744C283.769 250.433 284.138 249.236 284.544 247.849C284.943 246.462 285.38 244.893 285.734 243.488C286.096 242.073 286.39 240.842 286.666 239.59C286.951 238.333 287.207 237.074 287.443 235.85C287.674 234.626 287.883 233.445 288.07 232.238C288.261 231.038 288.431 229.824 288.578 228.695C288.725 227.557 288.847 226.513 288.967 225.29C289.087 224.058 289.208 222.654 289.294 221.368C289.379 220.092 289.441 218.937 289.485 217.904C289.52 216.859 289.543 215.939 289.553 214.94C289.56 213.938 289.56 212.853 289.526 211.646C289.501 210.449 289.458 209.13 289.379 207.819C289.311 206.508 289.216 205.214 289.096 203.949C288.983 202.681 288.837 201.433 288.673 200.181C288.509 198.923 288.318 197.647 288.096 196.345C287.862 195.035 287.605 193.7 287.337 192.451C287.07 191.192 286.785 190.028 286.579 189.165C286.365 188.305 286.207 187.753 286.14 187.477C286.061 187.201 286.061 187.201 286.061 187.201C286.061 187.201 286.061 187.201 286.112 187.692C286.173 188.193 286.275 189.193 286.38 190.27C286.483 191.357 286.578 192.519 286.656 193.563V193.563Z" fill="white"/>
    <path fill-rule="evenodd" clip-rule="evenodd" d="M168.275 314.114C167.464 314.175 166.213 314.261 164.92 314.329C163.627 314.39 162.291 314.441 160.885 314.475C159.473 314.51 157.99 314.52 156.506 314.51C155.033 314.493 153.55 314.459 152.206 314.407C150.852 314.356 149.637 314.295 148.308 314.193C146.972 314.107 145.533 313.978 144.154 313.848C142.773 313.709 141.463 313.555 140.144 313.381C138.817 313.21 137.491 313.02 136.103 312.787C134.715 312.563 133.258 312.303 131.827 312.019C130.397 311.734 128.983 311.432 127.577 311.105C126.163 310.777 124.758 310.434 123.396 310.062C122.035 309.7 120.706 309.322 119.44 308.933C118.173 308.545 116.958 308.156 115.604 307.692C114.25 307.225 112.768 306.693 111.293 306.123C109.819 305.564 108.371 304.977 106.992 304.381C105.622 303.795 104.32 303.201 103.234 302.692C102.146 302.185 101.277 301.752 100.492 301.356C99.6977 300.96 98.999 300.599 98.1979 300.159C97.3889 299.727 96.4749 299.218 95.62 298.727C94.7676 298.246 93.976 297.769 93.1037 297.244C92.2331 296.711 91.3026 296.125 90.3279 295.487C89.3627 294.849 88.3636 294.176 87.381 293.486C86.4063 292.797 85.4515 292.099 84.5193 291.4C83.5958 290.704 82.6991 290.005 81.8216 289.289C80.9423 288.573 80.0796 287.85 79.2437 287.126C78.4087 286.394 77.6041 285.668 76.7786 284.904C75.9505 284.135 75.1147 283.325 74.337 282.548C73.5627 281.774 72.8571 281.04 72.1479 280.29C71.4414 279.533 70.7348 278.756 69.9849 277.885C69.2245 277.024 68.4234 276.068 67.7004 275.171C66.9669 274.274 66.322 273.438 65.7083 272.628C65.1051 271.826 64.5357 271.05 63.9854 270.265C63.4333 269.49 62.8978 268.696 62.3458 267.86C61.7937 267.016 61.2165 266.11 60.6818 265.231C60.1393 264.351 59.6316 263.492 59.1846 262.698C58.7349 261.913 58.3391 261.197 57.9503 260.474C57.571 259.748 57.1821 259.018 56.7768 258.19C56.3732 257.371 55.9409 256.465 55.5625 255.647C55.184 254.828 54.8472 254.095 54.5122 253.294C54.1659 252.493 53.8135 251.63 53.4151 250.623C53.0288 249.621 52.6061 248.476 52.2181 247.391C51.8301 246.303 51.4847 245.26 51.1748 244.305C50.8736 243.347 50.6054 242.468 50.3311 241.495C50.0551 240.521 49.7695 239.453 49.5369 238.529C49.2956 237.615 49.1142 236.841 48.9328 236.047C48.7592 235.263 48.5882 234.468 48.432 233.704C48.2679 232.927 48.1308 232.176 47.9945 231.454C47.8652 230.721 47.7428 230.022 47.6482 229.411C47.5458 228.807 47.4668 228.29 47.3739 227.634C47.2793 226.986 47.1734 226.194 47.0632 225.315C46.9581 224.428 46.8462 223.454 46.7602 222.556C46.6656 221.653 46.597 220.824 46.5189 219.859C46.4512 218.884 46.3818 217.772 46.321 216.773C46.2698 215.781 46.2351 214.911 46.1908 214.014C46.157 213.117 46.1231 212.204 46.0962 211.575C46.0719 210.945 46.0615 210.601 46.0554 210.437C46.0554 210.264 46.0554 210.264 46.0554 210.264C46.0554 210.264 46.0554 210.264 46.2533 210.669C46.4443 211.084 46.8305 211.903 47.2532 212.746C47.6664 213.59 48.1056 214.453 48.5379 215.272C48.9684 216.1 49.4006 216.884 49.7964 217.6C50.1922 218.307 50.5637 218.952 50.9517 219.616C51.338 220.271 51.7433 220.953 52.1495 221.6C52.5549 222.245 52.9411 222.866 53.3569 223.496C53.7623 224.124 54.1919 224.755 54.6398 225.409C55.0894 226.063 55.5633 226.736 56.0642 227.425C56.5624 228.117 57.0875 228.823 57.5883 229.468C58.09 230.123 58.5631 230.727 59.0379 231.313C59.5118 231.909 59.9927 232.486 60.477 233.055C60.9579 233.632 61.4422 234.193 61.9847 234.805C62.5367 235.408 63.1304 236.072 63.692 236.667C64.2519 237.26 64.7692 237.796 65.3542 238.391C65.941 238.986 66.6154 239.65 67.2351 240.244C67.8627 240.848 68.4399 241.39 68.985 241.88C69.5275 242.382 70.0292 242.822 70.5881 243.313C71.1575 243.804 71.7955 244.346 72.4404 244.881C73.0784 245.415 73.7433 245.948 74.4594 246.518C75.1824 247.087 75.9662 247.683 76.7265 248.25C77.4765 248.82 78.2073 249.345 78.9572 249.89C79.7176 250.432 80.5014 250.975 81.2861 251.517C82.0698 252.062 82.8458 252.605 83.5541 253.086C84.2598 253.579 84.8873 254.017 85.1981 254.241C85.5183 254.456 85.5183 254.456 85.5183 254.456C85.5183 254.456 85.5183 254.456 85.6381 254.759C85.7605 255.06 86.0096 255.656 86.303 256.335C86.5964 257.009 86.941 257.776 87.2335 258.404C87.5269 259.025 87.7586 259.516 87.9912 259.965C88.216 260.412 88.4304 260.835 88.716 261.36C88.992 261.878 89.3444 262.507 89.6716 263.086C89.9997 263.662 90.3096 264.197 90.6733 264.791C91.0344 265.387 91.4571 266.05 91.8954 266.721C92.3346 267.403 92.8094 268.092 93.2495 268.722C93.6817 269.343 94.088 269.902 94.5002 270.461C94.923 271.023 95.3526 271.593 95.7927 272.142C96.2327 272.704 96.6728 273.246 97.1294 273.79C97.5868 274.332 98.0503 274.883 98.6128 275.505C99.1631 276.125 99.8002 276.814 100.516 277.564C101.225 278.314 102.017 279.115 102.766 279.841C103.517 280.574 104.206 281.219 104.939 281.884C105.672 282.538 106.429 283.203 107.138 283.804C107.852 284.4 108.516 284.943 109.164 285.461C109.818 285.976 110.457 286.47 111.102 286.951C111.74 287.426 112.396 287.899 113.111 288.4C113.819 288.899 114.594 289.426 115.371 289.942C116.156 290.45 116.94 290.951 117.783 291.469C118.622 291.985 119.516 292.513 120.303 292.96C121.087 293.407 121.759 293.778 122.422 294.14C123.096 294.495 123.751 294.839 124.492 295.21C125.225 295.572 126.033 295.968 126.801 296.33C127.577 296.694 128.301 297.021 129.095 297.366C129.896 297.711 130.766 298.072 131.499 298.373C132.239 298.676 132.853 298.907 133.447 299.132C134.05 299.365 134.654 299.58 135.353 299.821C136.042 300.064 136.827 300.329 137.569 300.572C138.302 300.813 138.991 301.019 139.783 301.253C140.577 301.485 141.474 301.745 142.337 301.97C143.197 302.201 144.026 302.406 144.783 302.59C145.542 302.771 146.231 302.924 147.016 303.088C147.801 303.252 148.67 303.426 149.516 303.58C150.369 303.736 151.207 303.873 151.93 303.986C152.653 304.105 153.257 304.193 154 304.286C154.74 304.381 155.603 304.486 156.292 304.562C156.973 304.641 157.482 304.691 158.11 304.743C158.748 304.797 159.515 304.855 160.241 304.9C160.973 304.951 161.68 304.985 162.454 305.019C163.232 305.046 164.077 305.073 164.817 305.09C165.558 305.098 166.205 305.098 166.888 305.098C167.567 305.09 168.292 305.073 168.989 305.053C169.688 305.037 170.37 305.002 171.198 304.96C172.024 304.907 173.006 304.838 173.971 304.762C174.939 304.684 175.887 304.589 176.86 304.486C177.842 304.381 178.843 304.262 179.809 304.149C180.774 304.02 181.695 303.9 182.576 303.77C183.455 303.641 184.291 303.521 185.041 303.399C185.801 303.27 186.473 303.158 187.213 303.021C187.947 302.891 188.748 302.745 189.584 302.581C190.419 302.407 191.299 302.226 192.059 302.062C192.826 301.898 193.471 301.745 194.307 301.554C195.135 301.349 196.145 301.097 196.956 300.892C197.757 300.684 198.361 300.528 198.955 300.357C199.549 300.194 200.136 300.03 200.808 299.832C201.489 299.632 202.256 299.4 203.007 299.157C203.764 298.926 204.497 298.693 205.135 298.478C205.773 298.27 206.325 298.079 207.093 297.813C207.86 297.547 208.852 297.186 209.738 296.857C210.635 296.521 211.42 296.218 212.135 295.944C212.841 295.658 213.478 295.398 214.065 295.16C214.652 294.918 215.194 294.685 215.815 294.417C216.446 294.141 217.152 293.83 217.868 293.503C218.574 293.185 219.28 292.858 220.031 292.494C220.781 292.132 221.582 291.737 222.404 291.324C223.229 290.909 224.075 290.469 224.893 290.031C225.712 289.591 226.506 289.159 227.359 288.677C228.212 288.202 229.109 287.676 229.995 287.15C230.875 286.625 231.737 286.099 232.591 285.564C233.436 285.028 234.272 284.496 235.117 283.934C235.952 283.374 236.805 282.805 237.678 282.195C238.557 281.591 239.451 280.954 240.256 280.367C241.057 279.78 241.77 279.255 242.469 278.72C243.176 278.185 243.884 277.642 244.659 277.022C245.443 276.4 246.299 275.711 247.1 275.057C247.909 274.385 248.668 273.755 249.46 273.074C250.255 272.385 251.079 271.661 251.83 270.997C252.573 270.335 253.245 269.731 253.89 269.135C254.53 268.54 255.157 267.955 255.597 267.532C256.045 267.109 256.304 266.843 256.433 266.704C256.572 266.575 256.572 266.575 256.572 266.575C256.572 266.575 256.572 266.575 256.304 266.946C256.037 267.325 255.503 268.067 254.865 268.921C254.236 269.782 253.504 270.738 252.865 271.559C252.227 272.368 251.692 273.04 251.132 273.694C250.58 274.359 250.021 275.024 249.452 275.669C248.883 276.316 248.304 276.953 247.744 277.565C247.184 278.178 246.632 278.755 246.08 279.334C245.521 279.901 244.961 280.47 244.262 281.151C243.564 281.833 242.737 282.625 241.882 283.41C241.047 284.187 240.194 284.954 239.393 285.643C238.599 286.332 237.858 286.953 237.047 287.618C236.238 288.272 235.359 288.978 234.496 289.633C233.643 290.298 232.808 290.909 231.962 291.522C231.109 292.132 230.247 292.737 229.333 293.357C228.419 293.978 227.454 294.616 226.384 295.287C225.316 295.962 224.143 296.674 222.979 297.356C221.816 298.046 220.651 298.694 219.463 299.341C218.273 299.978 217.056 300.606 215.85 301.21C214.645 301.804 213.462 302.373 212.265 302.918C211.065 303.46 209.861 303.986 208.644 304.494C207.42 305.002 206.188 305.503 204.851 306.004C203.524 306.503 202.11 307.011 200.67 307.502C199.231 307.986 197.775 308.449 196.231 308.916C194.688 309.374 193.066 309.83 191.405 310.253C189.748 310.683 188.059 311.079 186.507 311.417C184.956 311.761 183.551 312.044 182.163 312.296C180.775 312.555 179.404 312.777 178.043 312.985C176.672 313.194 175.309 313.373 173.949 313.545C172.584 313.709 171.224 313.848 170.344 313.933C169.474 314.028 169.095 314.053 168.277 314.114H168.275Z" fill="white"/>
    <path fill-rule="evenodd" clip-rule="evenodd" d="M0 253.854C49.3492 337.38 202.851 355.704 256.043 269.155C223.485 312.891 161.274 325.889 110.837 309.15C69.8571 295.541 36.6862 262.123 33.2212 210.869C26.1454 211.077 5.70526 218.517 0 253.855V253.854Z" fill="white"/>
    <path fill-rule="evenodd" clip-rule="evenodd" d="M249.253 271.18C248.38 271.767 247.613 272.267 246.839 272.766C246.062 273.257 245.277 273.758 244.537 274.207C243.794 274.654 243.098 275.077 242.426 275.473C241.745 275.868 241.079 276.25 240.434 276.611C239.787 276.972 239.159 277.318 238.467 277.688C237.77 278.057 237.01 278.456 236.288 278.824C235.572 279.196 234.9 279.533 234.262 279.843C233.624 280.154 233.021 280.438 232.417 280.724C231.804 281.006 231.194 281.29 230.46 281.617C229.727 281.945 228.874 282.316 228.012 282.678C227.149 283.05 226.279 283.404 225.382 283.755C224.495 284.109 223.582 284.454 222.702 284.781C221.823 285.109 220.987 285.402 219.96 285.756C218.944 286.1 217.737 286.496 216.632 286.841C215.538 287.185 214.539 287.479 213.436 287.788C212.332 288.091 211.125 288.419 209.918 288.719C208.703 289.022 207.478 289.306 206.21 289.582C204.952 289.858 203.642 290.116 202.41 290.349C201.169 290.581 200.003 290.771 198.728 290.962C197.463 291.16 196.083 291.341 194.738 291.505C193.395 291.669 192.081 291.798 190.66 291.918C189.247 292.03 187.721 292.132 186.212 292.204C184.704 292.279 183.221 292.323 181.823 292.341C180.429 292.357 179.118 292.35 177.548 292.296C175.978 292.255 174.161 292.177 172.455 292.065C170.739 291.952 169.144 291.805 167.411 291.617C165.679 291.419 163.8 291.167 161.98 290.883C160.152 290.598 158.378 290.28 156.755 289.96C155.145 289.632 153.689 289.315 152.049 288.91C150.421 288.504 148.619 288.023 146.869 287.512C145.119 287.005 143.431 286.462 141.637 285.842C139.843 285.231 137.955 284.522 136.102 283.789C134.248 283.049 132.43 282.274 130.732 281.497C129.027 280.729 127.441 279.962 126.06 279.264C124.673 278.567 123.499 277.937 122.371 277.317C121.251 276.695 120.181 276.085 119.138 275.464C118.094 274.843 117.071 274.213 116.164 273.654C115.267 273.085 114.493 272.583 113.648 272.015C112.802 271.448 111.888 270.818 111.045 270.231C110.207 269.644 109.46 269.102 109.079 268.826C108.7 268.55 108.7 268.55 108.7 268.55C108.7 268.55 108.7 268.55 108.898 268.905C109.106 269.25 109.519 269.939 109.917 270.576C110.303 271.214 110.684 271.793 111.122 272.43C111.554 273.068 112.045 273.75 112.58 274.463C113.113 275.178 113.7 275.921 114.312 276.652C114.924 277.385 115.554 278.111 116.226 278.834C116.907 279.558 117.621 280.291 118.389 281.04C119.172 281.781 120.011 282.541 120.769 283.205C121.526 283.867 122.209 284.427 122.925 284.979C123.63 285.531 124.373 286.083 125.062 286.574C125.752 287.065 126.39 287.505 127.173 288.006C127.957 288.504 128.872 289.074 129.684 289.548C130.485 290.022 131.174 290.401 131.941 290.816C132.709 291.219 133.561 291.652 134.414 292.057C135.259 292.47 136.112 292.858 136.95 293.22C137.794 293.581 138.614 293.919 139.492 294.263C140.382 294.608 141.329 294.952 142.346 295.297C143.362 295.641 144.457 295.996 145.501 296.305C146.554 296.616 147.544 296.892 148.57 297.159C149.596 297.417 150.657 297.666 151.786 297.908C152.915 298.158 154.123 298.39 155.261 298.59C156.398 298.795 157.457 298.959 158.502 299.105C159.535 299.252 160.545 299.374 161.58 299.487C162.621 299.597 163.699 299.692 164.803 299.771C165.898 299.856 167.02 299.918 168.105 299.961C169.193 300.012 170.233 300.037 171.277 300.047C172.33 300.064 173.374 300.054 174.486 300.037C175.604 300.013 176.787 299.969 178.062 299.9C179.329 299.839 180.692 299.744 181.837 299.651C182.984 299.563 183.924 299.468 184.873 299.366C185.811 299.262 186.769 299.15 188.078 298.96C189.397 298.779 191.069 298.52 192.638 298.247C194.217 297.979 195.69 297.695 197.034 297.408C198.388 297.132 199.621 296.849 201.027 296.505C202.431 296.16 204.017 295.745 205.413 295.349C206.818 294.961 208.042 294.599 209.266 294.213C210.5 293.825 211.724 293.419 212.904 293.006C214.085 292.591 215.213 292.178 216.352 291.737C217.491 291.307 218.636 290.85 219.687 290.41C220.747 289.97 221.713 289.557 222.842 289.047C223.974 288.531 225.256 287.927 226.412 287.366C227.567 286.799 228.602 286.271 229.523 285.79C230.437 285.305 231.257 284.866 232.128 284.368C233.007 283.877 233.945 283.332 234.981 282.704C236.005 282.083 237.133 281.384 238.231 280.661C239.333 279.945 240.41 279.212 241.454 278.479C242.497 277.746 243.507 277.005 244.523 276.231C245.533 275.453 246.54 274.652 247.559 273.807C248.582 272.964 249.608 272.068 250.566 271.213C251.522 270.353 252.394 269.524 253.039 268.911C253.677 268.3 254.082 267.894 254.29 267.689C254.488 267.481 254.488 267.481 254.488 267.481C254.488 267.481 254.488 267.481 254.082 267.782C253.687 268.075 252.868 268.671 251.979 269.292C251.092 269.93 250.127 270.591 249.257 271.178L249.253 271.18Z" fill="white"/>
    <path fill-rule="evenodd" clip-rule="evenodd" d="M84.1495 229.038C83.692 228.357 83.0037 227.314 82.2972 226.229C81.5985 225.152 80.8919 224.012 80.1663 222.815C79.4433 221.608 78.7003 220.333 77.9772 219.041C77.2533 217.756 76.5546 216.453 75.934 215.266C75.3065 214.076 74.7605 212.99 74.1841 211.792C73.6069 210.595 73.0037 209.275 72.4343 208.017C71.8727 206.759 71.3571 205.542 70.8476 204.318C70.3468 203.087 69.8564 201.845 69.372 200.526C68.8808 199.207 68.3825 197.829 67.926 196.441C67.459 195.07 67.0198 193.692 66.6162 192.312C66.2013 190.934 65.8116 189.537 65.4505 188.175C65.0894 186.811 64.7709 185.477 64.4783 184.193C64.185 182.9 63.9263 181.659 63.6564 180.254C63.3899 178.857 63.1234 177.305 62.8917 175.753C62.6504 174.202 62.4525 172.65 62.2789 171.159C62.1148 169.676 61.9855 168.264 61.89 167.064C61.7954 165.874 61.7364 164.909 61.6921 164.03C61.6505 163.159 61.6244 162.368 61.6071 161.455C61.5801 160.541 61.5723 159.505 61.5801 158.522C61.5801 157.54 61.5975 156.609 61.6314 155.6C61.6583 154.583 61.7103 153.479 61.7876 152.333C61.8562 151.179 61.9516 149.973 62.0714 148.79C62.1834 147.603 62.3127 146.43 62.4698 145.274C62.6243 144.136 62.7875 143.007 62.9785 141.895C63.159 140.784 63.3665 139.672 63.5887 138.595C63.8031 137.51 64.0383 136.449 64.2969 135.355C64.5634 134.267 64.8568 133.138 65.1397 132.078C65.4331 131.028 65.7187 130.052 66.0294 129.06C66.3402 128.078 66.6674 127.079 67.0528 126.002C67.4347 124.914 67.8644 123.751 68.2871 122.673C68.7098 121.606 69.1151 120.624 69.5187 119.7C69.9171 118.769 70.3129 117.9 70.7261 117.037C71.1314 116.174 71.5542 115.322 72.0116 114.425C72.476 113.528 72.9768 112.58 73.4776 111.676C73.9758 110.778 74.4775 109.91 74.941 109.132C75.408 108.348 75.8377 107.658 76.2777 106.96C76.7178 106.271 77.1674 105.573 77.683 104.822C78.1908 104.055 78.7706 103.236 79.2957 102.497C79.8208 101.763 80.3052 101.116 80.8303 100.427C81.365 99.728 81.9413 98.9946 82.6236 98.1596C83.2954 97.3238 84.0809 96.383 84.8378 95.5133C85.5973 94.6437 86.3307 93.8252 87.0199 93.0823C87.6995 92.3419 88.3392 91.6771 89.0458 90.9636C89.7619 90.2476 90.5465 89.4708 91.2357 88.8086C91.9171 88.1438 92.5012 87.6013 93.1053 87.0563C93.7017 86.5147 94.3049 85.9722 94.8986 85.4532C95.494 84.9377 96.0791 84.4369 96.6485 83.963C97.217 83.4891 97.769 83.0395 98.2516 82.6533C98.7351 82.2653 99.1404 81.945 99.6656 81.5415C100.184 81.1361 100.822 80.6527 101.538 80.1198C102.251 79.5921 103.052 79.0158 103.786 78.4898C104.529 77.9647 105.208 77.4978 106.03 76.9458C106.831 76.4033 107.779 75.7923 108.614 75.2577C109.45 74.7152 110.191 74.2483 110.951 73.7744C111.718 73.2996 112.503 72.8093 113.038 72.4812C113.571 72.1444 113.863 71.9734 114.01 71.878C114.157 71.7921 114.157 71.7921 114.157 71.7921C114.157 71.7921 114.157 71.7921 113.898 72.1618C113.631 72.5333 113.114 73.2823 112.581 74.0599C112.053 74.8341 111.521 75.6456 111.02 76.4198C110.512 77.2036 110.038 77.9639 109.615 78.6608C109.193 79.3586 108.814 79.9974 108.425 80.6614C108.046 81.3236 107.657 82.0153 107.296 82.6871C106.925 83.3493 106.58 84.0064 106.235 84.6686C105.891 85.3334 105.554 86.0147 105.202 86.7282C104.857 87.4442 104.503 88.1863 104.148 88.9614C103.796 89.7286 103.441 90.5297 103.124 91.2891C102.796 92.0468 102.511 92.7524 102.235 93.4615C101.952 94.1585 101.685 94.8667 101.426 95.5637C101.167 96.2719 100.918 96.968 100.659 97.7456C100.39 98.5129 100.113 99.3582 99.8748 100.142C99.6335 100.916 99.4173 101.623 99.1934 102.434C98.9686 103.235 98.7264 104.14 98.512 104.977C98.2976 105.821 98.1067 106.597 97.9426 107.303C97.7786 108.019 97.6414 108.667 97.4947 109.406C97.3489 110.14 97.1944 110.958 97.0477 111.777C96.8915 112.605 96.7543 113.431 96.6155 114.337C96.4783 115.24 96.349 116.216 96.2275 117.154C96.1077 118.095 96.0053 118.982 95.9098 119.905C95.8152 120.826 95.7197 121.775 95.6338 122.723C95.5487 123.671 95.4697 124.611 95.3925 125.465C95.3135 126.317 95.2458 127.077 95.205 127.465C95.1703 127.844 95.1703 127.844 95.1703 127.844C95.1703 127.844 95.1703 127.844 94.9698 128.093C94.7719 128.351 94.3761 128.861 93.9291 129.456C93.4794 130.04 92.9786 130.722 92.5828 131.282C92.1775 131.844 91.8763 132.291 91.5907 132.713C91.3164 133.136 91.0578 133.525 90.7375 134.023C90.4276 134.532 90.0483 135.145 89.7037 135.714C89.3661 136.283 89.0562 136.816 88.7212 137.419C88.3844 138.033 88.0129 138.722 87.6336 139.445C87.2647 140.161 86.8932 140.912 86.5659 141.593C86.2387 142.282 85.9531 142.91 85.6693 143.548C85.3838 144.195 85.1095 144.85 84.8413 145.505C84.5748 146.159 84.3257 146.807 84.074 147.472C83.824 148.134 83.5749 148.815 83.3058 149.6C83.0393 150.384 82.7564 151.281 82.4534 152.273C82.1522 153.262 81.8493 154.34 81.5828 155.349C81.3146 156.358 81.0916 157.289 80.8841 158.244C80.6697 159.203 80.471 160.184 80.2982 161.098C80.1272 162.013 79.9806 162.858 79.8504 163.676C79.728 164.494 79.6151 165.289 79.5127 166.081C79.4181 166.882 79.3226 167.676 79.2367 168.539C79.1586 169.408 79.0831 170.329 79.0223 171.261C78.9607 172.191 78.9103 173.123 78.8852 174.105C78.8487 175.09 78.8313 176.123 78.8313 177.027C78.8235 177.924 78.8313 178.69 78.8582 179.45C78.8756 180.2 78.9025 180.941 78.9433 181.759C78.9876 182.577 79.0492 183.484 79.1169 184.327C79.1759 185.166 79.254 185.957 79.3495 186.819C79.4441 187.682 79.557 188.612 79.6594 189.405C79.7618 190.188 79.8573 190.837 79.9623 191.464C80.0647 192.102 80.1672 192.732 80.3069 193.455C80.4362 194.171 80.5899 194.983 80.7461 195.74C80.9102 196.5 81.0569 197.197 81.2443 197.998C81.4353 198.802 81.6575 199.705 81.8927 200.568C82.1149 201.42 82.3397 202.239 82.5645 202.989C82.7789 203.739 82.9872 204.411 83.2294 205.171C83.4785 205.928 83.7624 206.764 84.0384 207.583C84.3318 208.395 84.6173 209.188 84.8742 209.868C85.1329 210.549 85.3655 211.126 85.6415 211.807C85.9271 212.497 86.2622 213.298 86.5382 213.928C86.8072 214.555 87.013 215.022 87.289 215.599C87.5555 216.168 87.8853 216.857 88.203 217.523C88.5233 218.177 88.8409 218.807 89.1951 219.487C89.5466 220.176 89.952 220.918 90.307 221.573C90.668 222.221 90.9788 222.77 91.3234 223.356C91.668 223.952 92.0395 224.573 92.4005 225.167C92.7616 225.76 93.1244 226.33 93.5732 227.028C94.0306 227.717 94.5731 228.536 95.1251 229.337C95.6772 230.131 96.2197 230.908 96.7969 231.7C97.3654 232.494 97.9695 233.303 98.5563 234.08C99.1326 234.854 99.702 235.588 100.245 236.294C100.79 236.986 101.315 237.648 101.796 238.244C102.28 238.838 102.71 239.363 103.194 239.933C103.676 240.502 104.194 241.123 104.754 241.76C105.315 242.408 105.909 243.08 106.434 243.656C106.963 244.233 107.409 244.727 107.986 245.347C108.573 245.967 109.298 246.715 109.875 247.311C110.452 247.905 110.891 248.345 111.331 248.778C111.771 249.207 112.202 249.638 112.712 250.121C113.22 250.612 113.807 251.164 114.384 251.699C114.96 252.232 115.53 252.749 116.037 253.197C116.539 253.647 116.968 254.036 117.582 254.561C118.192 255.094 119.004 255.775 119.727 256.388C120.461 256.992 121.115 257.525 121.712 257.998C122.312 258.482 122.848 258.905 123.348 259.283C123.856 259.679 124.321 260.033 124.865 260.438C125.415 260.842 126.035 261.298 126.676 261.755C127.303 262.212 127.941 262.652 128.622 263.125C129.312 263.6 130.053 264.1 130.819 264.609C131.587 265.11 132.388 265.626 133.172 266.116C133.967 266.61 134.743 267.084 135.579 267.582C136.423 268.084 137.319 268.609 138.215 269.11C139.113 269.618 139.999 270.1 140.889 270.573C141.768 271.04 142.655 271.497 143.56 271.954C144.456 272.402 145.381 272.857 146.345 273.315C147.303 273.764 148.31 274.229 149.216 274.634C150.121 275.039 150.932 275.392 151.751 275.736C152.568 276.083 153.387 276.428 154.311 276.79C155.232 277.161 156.258 277.557 157.234 277.928C158.207 278.297 159.147 278.634 160.129 278.986C161.121 279.333 162.162 279.694 163.11 280.013C164.061 280.332 164.921 280.608 165.757 280.874C166.595 281.133 167.413 281.393 168 281.564C168.594 281.737 168.955 281.832 169.136 281.884C169.318 281.925 169.318 281.925 169.318 281.925C169.318 281.925 169.318 281.925 168.86 281.884C168.406 281.84 167.492 281.745 166.432 281.625C165.371 281.496 164.172 281.341 163.147 281.185C162.112 281.038 161.268 280.901 160.413 280.755C159.57 280.598 158.715 280.445 157.862 280.271C157.018 280.1 156.174 279.916 155.373 279.737C154.552 279.548 153.777 279.357 153 279.159C152.226 278.968 151.449 278.764 150.51 278.495C149.569 278.228 148.467 277.9 147.373 277.556C146.278 277.212 145.183 276.85 144.191 276.496C143.192 276.151 142.284 275.824 141.312 275.446C140.33 275.074 139.277 274.65 138.285 274.238C137.285 273.823 136.33 273.41 135.382 272.981C134.424 272.548 133.467 272.101 132.476 271.61C131.484 271.126 130.45 270.601 129.338 270.015C128.227 269.428 127.019 268.766 125.847 268.092C124.674 267.42 123.527 266.738 122.382 266.032C121.225 265.316 120.07 264.576 118.958 263.826C117.839 263.085 116.761 262.335 115.691 261.568C114.624 260.801 113.571 260.024 112.519 259.215C111.475 258.414 110.432 257.585 109.338 256.682C108.243 255.776 107.097 254.803 105.958 253.801C104.812 252.802 103.691 251.758 102.52 250.657C101.356 249.545 100.158 248.372 98.9677 247.149C97.7777 245.925 96.5903 244.656 95.5201 243.486C94.4594 242.312 93.5211 241.235 92.608 240.157C91.7009 239.08 90.8243 238.01 89.9684 236.925C89.1057 235.848 88.2707 234.753 87.4522 233.658C86.6337 232.554 85.8386 231.452 85.3308 230.736C84.823 230.03 84.5982 229.709 84.1503 229.038L84.1495 229.038Z" fill="white"/>
    <path fill-rule="evenodd" clip-rule="evenodd" d="M53.3419 53.5084C4.97261 137.602 65.012 279.567 166.808 282.755C112.563 276.222 70.4169 228.796 60.0297 176.847C51.5999 134.628 64.3063 89.358 107.27 60.9829C103.588 54.9578 86.9763 40.9503 53.3419 53.5084Z" fill="white"/>
    <path fill-rule="evenodd" clip-rule="evenodd" d="M161.679 277.877C160.739 277.42 159.92 277 159.101 276.578C158.283 276.145 157.464 275.715 156.705 275.293C155.948 274.88 155.242 274.475 154.55 274.086C153.87 273.698 153.216 273.312 152.578 272.931C151.947 272.552 151.337 272.174 150.661 271.761C150 271.346 149.274 270.881 148.595 270.441C147.923 270.001 147.292 269.588 146.706 269.19C146.111 268.794 145.567 268.415 145.017 268.026C144.472 267.648 143.922 267.252 143.275 266.778C142.627 266.303 141.88 265.751 141.137 265.182C140.386 264.623 139.646 264.036 138.897 263.44C138.146 262.846 137.389 262.226 136.673 261.632C135.957 261.036 135.275 260.449 134.466 259.733C133.665 259.02 132.724 258.174 131.879 257.397C131.036 256.614 130.276 255.899 129.467 255.096C128.646 254.295 127.769 253.407 126.906 252.51C126.034 251.607 125.182 250.692 124.319 249.734C123.459 248.77 122.579 247.77 121.768 246.812C120.959 245.857 120.209 244.943 119.415 243.944C118.613 242.935 117.768 241.83 116.966 240.745C116.158 239.668 115.39 238.598 114.589 237.427C113.788 236.254 112.941 234.986 112.131 233.711C111.322 232.443 110.554 231.184 109.838 229.98C109.132 228.772 108.492 227.634 107.752 226.263C107.018 224.885 106.192 223.263 105.443 221.728C104.692 220.195 104.02 218.737 103.329 217.145C102.65 215.549 101.934 213.8 101.28 212.075C100.625 210.359 100.021 208.662 99.5031 207.103C98.9849 205.541 98.5448 204.119 98.0883 202.506C97.6308 200.896 97.1578 199.094 96.7368 197.327C96.3219 195.56 95.953 193.828 95.598 191.965C95.2534 190.113 94.9271 188.13 94.6511 186.155C94.382 184.191 94.1598 182.234 93.9862 180.372C93.823 178.52 93.7032 176.771 93.6251 175.227C93.547 173.685 93.5131 172.348 93.4958 171.073C93.4784 169.797 93.488 168.563 93.5131 167.356C93.5305 166.142 93.5739 164.943 93.6182 163.885C93.6694 162.824 93.7206 161.9 93.7996 160.892C93.8751 159.875 93.9636 158.773 94.066 157.754C94.1606 156.748 94.2639 155.817 94.3151 155.36C94.3664 154.893 94.3664 154.893 94.3664 154.893C94.3664 154.893 94.3664 154.893 94.1615 155.237C93.9636 155.591 93.5652 156.29 93.2033 156.945C92.8422 157.599 92.5219 158.22 92.1868 158.91C91.8492 159.598 91.4881 160.358 91.1366 161.177C90.772 161.995 90.4205 162.874 90.0829 163.762C89.7487 164.649 89.4284 165.555 89.135 166.504C88.8347 167.441 88.5491 168.426 88.2827 169.47C88.0136 170.51 87.7645 171.605 87.5666 172.597C87.3687 173.579 87.222 174.452 87.0822 175.339C86.9546 176.236 86.8427 177.139 86.755 177.985C86.6691 178.82 86.6083 179.597 86.5571 180.518C86.5059 181.442 86.472 182.527 86.4547 183.457C86.4373 184.381 86.4451 185.165 86.472 186.035C86.4989 186.905 86.5397 187.853 86.6092 188.794C86.6699 189.732 86.7559 190.663 86.8505 191.57C86.9555 192.467 87.0649 193.353 87.2055 194.284C87.3418 195.225 87.5058 196.215 87.7133 197.268C87.9112 198.318 88.1533 199.44 88.3946 200.5C88.6342 201.558 88.8929 202.559 89.1689 203.576C89.4544 204.593 89.7556 205.636 90.1098 206.73C90.4544 207.834 90.8502 208.988 91.239 210.076C91.627 211.16 92.0063 212.163 92.3943 213.135C92.7805 214.1 93.1685 215.041 93.5912 215.989C94.0044 216.947 94.454 217.928 94.9288 218.918C95.4027 219.91 95.901 220.918 96.4027 221.874C96.9035 222.842 97.3939 223.753 97.8921 224.667C98.4008 225.581 98.9285 226.477 99.4961 227.435C100.074 228.39 100.696 229.4 101.385 230.46C102.074 231.531 102.824 232.66 103.472 233.608C104.116 234.562 104.668 235.33 105.221 236.097C105.781 236.864 106.36 237.631 107.169 238.674C107.981 239.718 109.031 241.038 110.048 242.269C111.057 243.493 112.039 244.632 112.953 245.659C113.867 246.692 114.722 247.623 115.722 248.666C116.721 249.71 117.86 250.872 118.901 251.899C119.937 252.915 120.858 253.795 121.807 254.664C122.748 255.534 123.713 256.397 124.653 257.207C125.601 258.026 126.523 258.8 127.463 259.568C128.401 260.345 129.376 261.112 130.28 261.801C131.187 262.5 132.03 263.138 133.032 263.854C134.032 264.578 135.195 265.396 136.262 266.111C137.323 266.835 138.288 267.465 139.167 268.024C140.047 268.584 140.831 269.068 141.702 269.576C142.564 270.094 143.506 270.637 144.565 271.223C145.616 271.809 146.788 272.431 147.952 273.033C149.125 273.628 150.298 274.197 151.451 274.739C152.606 275.274 153.763 275.783 154.935 276.273C156.105 276.764 157.306 277.248 158.554 277.713C159.795 278.169 161.087 278.627 162.305 279.024C163.529 279.428 164.685 279.781 165.528 280.024C166.39 280.283 166.942 280.429 167.219 280.505C167.495 280.576 167.495 280.576 167.495 280.576C167.495 280.576 167.495 280.576 167.038 280.376C166.581 280.171 165.657 279.766 164.675 279.299C163.683 278.841 162.622 278.343 161.684 277.876L161.679 277.877Z" fill="white"/>
</svg>
