<svg height="64" id="Layer_1" data-name="Layer 1" xmlns="http://www.w3.org/2000/svg"
  viewBox="0 0 156.91 35.23">
  <defs>
    <style>.cls-1{fill:#fff;}</style>
  </defs>
  <polygon class="cls-1"
    points="5.09 8.81 15.26 8.81 10.17 17.62 15.26 26.43 25.43 8.81 20.34 0 0 0 5.09 8.81" />
  <polygon class="cls-1" points="25.43 8.81 30.52 17.62 35.6 8.81 40.69 0 30.52 0 25.43 8.81" />
  <polygon class="cls-1" points="15.26 26.43 20.34 35.23 25.43 26.43 15.26 26.43" />
  <path class="cls-1"
    d="M62,34.56H57V31.83a11.42,11.42,0,0,1-8.64,3.4,11.28,11.28,0,0,1-8.33-3.52,12.36,12.36,0,0,1-3.48-9,12.35,12.35,0,0,1,3.5-9,11.32,11.32,0,0,1,8.31-3.55A11.43,11.43,0,0,1,57,13.49V10.75h5Zm-7.35-6A7.83,7.83,0,0,0,57,22.66a7.83,7.83,0,0,0-2.36-5.88A7.6,7.6,0,0,0,49.2,14.5a7.51,7.51,0,0,0-5.57,2.23,8.06,8.06,0,0,0-2.2,5.93,8.08,8.08,0,0,0,2.2,5.93,7.88,7.88,0,0,0,11-.05Z" />
  <path class="cls-1"
    d="M84.39,10.66l-.34,4.8a13.73,13.73,0,0,0-1.39-.05,8.1,8.1,0,0,0-6.72,2.86q-2.31,2.85-2.31,7.89v8.4h-5V10.75h5v5.09q3.27-5.37,9.08-5.38A5.83,5.83,0,0,1,84.39,10.66Z" />
  <path class="cls-1"
    d="M90.48,27.12a3.94,3.94,0,0,0,1.85,3,7.62,7.62,0,0,0,4.1,1,6,6,0,0,0,3.44-.86,2.68,2.68,0,0,0,1.27-2.3q0-2.11-3.22-2.84l-5.18-1q-6.48-1.44-6.48-6.48a6.67,6.67,0,0,1,2.57-5.45,10.52,10.52,0,0,1,6.84-2.09,11.21,11.21,0,0,1,6.69,1.9,8,8,0,0,1,3.34,5L101,18a4.27,4.27,0,0,0-1.73-2.83,6.12,6.12,0,0,0-3.7-1,4.86,4.86,0,0,0-3.14.88,2.79,2.79,0,0,0-1.08,2.24c0,1.34,1,2.24,2.88,2.68l5.66,1.25a8.87,8.87,0,0,1,4.56,2.28A5.68,5.68,0,0,1,106,27.55a6.64,6.64,0,0,1-2.73,5.67,12.08,12.08,0,0,1-7.3,2,13.5,13.5,0,0,1-7.15-1.79,6.91,6.91,0,0,1-3.36-5.26Z" />
  <path class="cls-1"
    d="M130.9,12.89a10.19,10.19,0,0,1,2.64,7.27v14.4h-5V21.17a6.86,6.86,0,0,0-1.56-4.7,5.19,5.19,0,0,0-4.11-1.78,6.41,6.41,0,0,0-5.2,2.26q-1.91,2.25-1.9,6.62v11h-5V0h5V13.68a10.22,10.22,0,0,1,8.26-3.6A9.07,9.07,0,0,1,130.9,12.89Z" />
  <path class="cls-1"
    d="M144.72,1.39a3,3,0,0,1,.91,2.21,2.92,2.92,0,0,1-.89,2.21,3.15,3.15,0,0,1-2.28.86,3.25,3.25,0,0,1-2.3-.86,2.9,2.9,0,0,1-.91-2.21,3,3,0,0,1,.91-2.21,3.12,3.12,0,0,1,2.3-.91A3.06,3.06,0,0,1,144.72,1.39ZM140,34.56V10.75h5V34.56Z" />
  <path class="cls-1" d="M151.92,34.56V0h5V34.56Z" />
</svg>